<?xml version="1.0" encoding="UTF-8"?><svg id="a" xmlns="http://www.w3.org/2000/svg" viewBox="0 0 263.05 97.68"><defs><style>.b{fill:#ff0789;fill-rule:evenodd;}</style></defs><path class="b" d="M95.03,39.49c0-.14-.03-.35-.11-.63-.08-.28-.16-.52-.21-.69-.07-.49-.09-.95-.06-1.36,.03-.42,.03-.87,0-1.36,0-.38-.04-.77-.1-1.16-.06-.39-.11-.77-.15-1.16-.02-.18-.04-.49-.06-.94-.02-.45-.05-.93-.08-1.44-.03-.51-.06-.99-.08-1.44-.02-.45-.02-.77-.01-.94-.06-.07-.12-.21-.15-.4-.04-.19-.05-.38-.04-.55l-.13-8.62c.02-.28,0-.64-.05-1.1-.05-.46-.07-.89-.04-1.31v-5.12c0-.07,0-.23-.03-.5-.02-.26-.02-.43-.02-.5,0-.1,.03-.35,.08-.73,.04-.38,.07-.6,.07-.67-.03-.04-.06-.19-.1-.45-.03-.26-.08-.47-.14-.61-.04-.39-.08-.8-.12-1.24-.04-.44-.04-.86-.02-1.28l.03-.36c.11-.13,.32-.41,.63-.84,.31-.43,.63-.87,.95-1.32,.33-.45,.64-.84,.94-1.19,.3-.34,.51-.51,.61-.51,.17,.01,.34,.05,.49,.11,.15,.06,.31,.12,.48,.16l.16-.09c.1,.08,.15,.16,.17,.25,.01,.09,.08,.15,.22,.2,.03,0,.17-.05,.4-.15s.49-.23,.76-.36c.27-.14,.53-.27,.78-.39,.25-.12,.43-.2,.54-.22,.99-.21,1.95-.37,2.88-.48,.93-.11,1.9-.13,2.9-.06,.17,.01,.35,.03,.54,.06,.19,.03,.37,.05,.54,.06,.79,.12,1.55,.39,2.27,.78,.72,.4,1.43,.83,2.13,1.3l.2,.17c.59,.46,1.15,1,1.66,1.63,.51,.63,.94,1.3,1.27,2.02,.09,.18,.15,.4,.16,.66,.02,.26,.07,.48,.16,.66,.12,.25,.29,.52,.49,.82,.21,.29,.33,.58,.38,.86,.12,.81,.15,1.56,.1,2.25l-.03,.47c-.01,.17-.05,.31-.11,.41-.06,.1-.09,.24-.11,.41,0,.07,0,.14,.04,.21,.03,.07,.04,.14,.04,.21-.05,.27-.17,.55-.35,.84-.18,.28-.33,.56-.45,.83l-.12,.2c-.35,.57-.73,1.17-1.12,1.8-.39,.63-.85,1.18-1.37,1.63-.33,.19-.7,.38-1.14,.57-.43,.2-.78,.41-1.04,.63l-.34,.34s-.06,.07-.06,.1c0,.03-.01,.06-.03,.08-.02,.02-.03,0-.02-.03-.08,.1-.23,.23-.47,.38-.24,.16-.48,.32-.74,.5-.26,.17-.48,.35-.69,.53-.2,.18-.31,.32-.32,.42l2.25,2.92s.03,.07,.1,.11c.07,.04,.1,.08,.1,.11,.16,.25,.37,.49,.63,.7,.26,.21,.51,.44,.73,.7,0,.03,.01,.07,.04,.11,0,.03,0,.05,.02,.05,.02,0,.02,.02,.02,.05,0,.03,.01,.05,.05,.06l.3,.13c.27,.16,.5,.37,.69,.65,.19,.27,.38,.51,.58,.69,.26,.3,.56,.53,.92,.69,.35,.16,.66,.39,.92,.69,.16,.22,.56,.57,1.21,1.05,.64,.48,1.5,1.07,2.56,1.77,.38,.1,.76,.29,1.16,.58,.4,.29,.69,.61,.87,.97-.17-.05-.31-.14-.42-.29-.11-.15-.3-.25-.58-.3-.07,0-.11,.08-.12,.25,0,.14,0,.37,.03,.71,.03,.33,.11,.83,.23,1.5l-.08,.36c-.04,.07-.06,.19-.08,.36l-.11,1.61c-.07,.55-.26,1.03-.57,1.45-.31,.41-.91,.59-1.81,.53l-.26-.02c-.07,0-.16-.02-.26-.04-.1-.02-.29-.06-.57-.12-.27-.05-.65-.13-1.13-.24-.48-.1-1.15-.25-2-.45l-2.29-1.62c-.37-.2-.72-.48-1.06-.83-.34-.35-.7-.6-1.07-.73l-4.81-4.36c-.22-.4-.5-.71-.85-.95-.35-.23-.63-.55-.85-.95l-.03,.42,.1,2.25c0,.1,.01,.2,.06,.29,.05,.09,.06,.22,.05,.4,.05,.28,.1,.52,.16,.72,.06,.2,.16,.42,.32,.67,.15,.29,.25,.75,.3,1.38,.04,.63,.05,1.17,.02,1.62l-.02,.31c-.14-.04-.21-.13-.22-.25,0-.12-.1-.21-.27-.25,0-.07,.03-.11,.06-.13,.04-.02,.06-.11,.07-.28-.04-.39-.1-.78-.18-1.19-.08-.41-.19-.79-.34-1.15,0-.03-.01-.05-.05-.06-.07,0-.1-.02-.1-.06-.14,0-.26,.09-.36,.31-.1,.22-.17,.38-.22,.48,.08,.35,.15,.78,.2,1.27,.05,.49,.07,.93,.04,1.31v.21c-.02,.14-.06,.21-.13,.2-.07,0-.14,.04-.22,.14-.07,.06-.14,.17-.21,.33-.06,.15-.14,.32-.24,.5-.1,.18-.19,.34-.27,.48-.08,.13-.14,.2-.17,.2-.14,0-.27-.07-.4-.18,0,.03-.05,.12-.15,.25-.1,.13-.16,.21-.2,.25,0,.03-.04,.08-.11,.15l-.11,.1c-.16,.27-.21,.44-.17,.51,.05,.07-.1,.13-.46,.18-.07,0-.11,.04-.12,.15,0,.03,0,.06,.02,.08,.02,.02,.02,.05,.02,.08,0,.03-.04,.08-.12,.15-.17-.01-.28,.05-.33,.19,0,.07,0,.15,.04,.24,.03,.09,.04,.17,.04,.24-.06,.31-.2,.43-.42,.36-.22-.07-.42-.04-.61,.09-.04,.07-.08,.12-.11,.15-.04,.07-.1,.13-.17,.2l-.29-.39c-.07,.06-.18,.09-.32,.08-.1-.04-.19-.09-.28-.15-.08-.06-.16-.09-.23-.09,.03,.07,.08,.16,.14,.27,.06,.07,.1,.15,.12,.22,.01,.07,.05,.14,.12,.22,0,.03,.03,.08,.1,.14,.07,.06,.09,.14,.09,.24-.14,0-.28-.12-.42-.34-.14-.22-.27-.46-.39-.73-.12-.27-.23-.54-.34-.81-.1-.27-.17-.47-.19-.61l-.46-1.6h0Zm6.61-21.36c-.01,.21,.06,.39,.22,.54,.16,.15,.37,.28,.63,.38,.25,.1,.51,.19,.76,.26,.26,.07,.49,.13,.69,.18,0-.07,.05-.13,.14-.17,.09-.05,.33-.11,.72-.18,.07-.03,.19-.1,.35-.21,.16-.11,.33-.24,.5-.38,.17-.14,.32-.28,.47-.41,.15-.13,.26-.23,.33-.29,.22-.16,.45-.39,.7-.71,.25-.31,.41-.55,.49-.72,.54-.76,.99-1.52,1.36-2.28,.37-.76,.62-1.58,.75-2.48,.01-.17-.02-.35-.09-.53-.07-.18-.14-.34-.2-.48-.59-1.02-1.4-1.92-2.42-2.7-1.02-.79-2.09-1.25-3.19-1.4-.17-.01-.32-.03-.44-.06-.12-.03-.23-.04-.34-.05-.1,0-.22,0-.34,0-.12,0-.27,0-.44,0-.14,.03-.42,.08-.85,.18-.42,.09-.64,.22-.65,.4-.02,.24,.03,.51,.13,.79,.1,.29,.16,.55,.18,.8l.39,7.13c.03,.11,.04,.25,.05,.42,0,.17,.02,.37,.04,.58,.02,.21,.03,.41,.04,.6,0,.19,.02,.32,.05,.4,.06,.07,.12,.14,.17,.19,.05,.06,.07,.15,.06,.29l-.26-.07h0Z"/><path class="b" d="M128.12,39c-.28-.02-.54-.16-.78-.42-.24-.26-.44-.48-.61-.67-.46-.45-.9-.94-1.33-1.48-.43-.53-.8-1.09-1.11-1.67-.7-1.41-1.27-2.81-1.72-4.22-.44-1.41-.6-2.94-.49-4.6,.11-1.59,.46-3.08,1.04-4.47,.58-1.39,1.32-2.73,2.21-4.02,.43-.67,.86-1.36,1.29-2.08,.43-.72,.95-1.35,1.54-1.9,.04-.07,.14-.17,.31-.32,.17-.15,.35-.3,.55-.46,.2-.16,.39-.31,.55-.46s.29-.25,.36-.31l1.2-.8c.11-.1,.24-.14,.37-.13,.39-.15,.8-.34,1.21-.57,.42-.23,.81-.47,1.17-.73l.88-.62s.08-.07,.14-.12c.06-.05,.1-.07,.14-.07l.2,.12c.17,.01,.29-.02,.35-.11,.06-.08,.14-.16,.25-.22,.43-.21,.89-.38,1.37-.51,.48-.12,.93-.29,1.37-.5,.11-.03,.28-.08,.51-.15,.23-.07,.48-.14,.75-.21,.27-.07,.51-.13,.74-.18,.23-.05,.4-.09,.5-.12,.38,.03,.77,.01,1.18-.05,.4-.06,.82-.11,1.24-.15,.07,0,.22,.02,.47,.06,.24,.03,.5,.07,.78,.11,.28,.04,.54,.06,.78,.08s.4,.03,.47,.03l.26,.02c.14,0,.24,0,.32-.06,.07-.05,.18-.07,.32-.06,.31,.02,.69,.15,1.12,.39,.44,.24,.77,.42,1.01,.54,.77,.44,1.56,1.03,2.36,1.78,.8,.75,1.4,1.52,1.8,2.32,.27,.58,.54,1.23,.8,1.96,.26,.73,.5,1.49,.7,2.27,.21,.78,.4,1.56,.57,2.34,.17,.78,.31,1.48,.4,2.12,.03,.04,.05,.15,.05,.34,0,.19,0,.32,0,.39,.02,.18,.05,.39,.09,.63,.03,.25,.05,.47,.03,.68-.05,.76-.16,1.49-.31,2.17-.15,.69-.31,1.39-.46,2.11-.1,.48-.18,.94-.23,1.37-.05,.43-.16,.88-.33,1.36-.13,.41-.41,.95-.82,1.64-.41,.68-.92,1.3-1.51,1.85-.04,.03-.12,.11-.25,.24-.13,.13-.27,.29-.42,.47-.15,.18-.29,.34-.43,.49-.13,.15-.22,.24-.25,.27-.38,.39-.75,.59-1.14,.6-.38,0-.78,.14-1.18,.39-.51,.35-1.02,.71-1.54,1.09-.51,.38-1.04,.74-1.59,1.09-.33,.19-.67,.35-1.03,.5-.36,.15-.7,.32-1.03,.5-.29,.19-.57,.4-.83,.62-.26,.23-.57,.4-.92,.51-.14,.06-.23,.12-.27,.19-.04,.07-.1,.13-.17,.2-.33,.19-.67,.32-1.05,.4-.37,.08-.73,.17-1.09,.29-.82,.33-1.7,.57-2.63,.73-.93,.16-1.85,.21-2.75,.15-.9-.06-1.77-.27-2.62-.63-.85-.35-1.59-.92-2.23-1.7-.1-.08-.23-.16-.4-.26-.17-.1-.24-.23-.23-.41h0Zm1.7-14.6c.03,.07,.13,.58,.31,1.54,.18,.95,.59,2.02,1.24,3.22,.65,1.19,1.62,2.33,2.92,3.41,1.3,1.08,3.12,1.81,5.46,2.18,0,.07,.03,.12,.09,.14,.07,.02,.14,.05,.2,.09l1.75-.4s.12-.05,.24-.06,.22-.01,.29,0c.52-.45,.97-.92,1.35-1.42,.38-.5,.77-1.03,1.16-1.59,.19-.27,.39-.53,.58-.8,.19-.26,.37-.53,.53-.8,.56-1.07,1.02-2.21,1.36-3.4,.34-1.19,.56-2.4,.64-3.61,.03-.42,.02-.89-.03-1.44-.05-.54-.06-1.44-.05-2.69v-.16c.03-.28-.06-.71-.26-1.3-.2-.59-.55-1.19-1.05-1.8-.5-.61-1.14-1.16-1.92-1.65-.78-.49-1.75-.77-2.89-.85-.66-.05-1.31-.07-1.95-.06-.64,0-1.32,.06-2.02,.15l-2.61,.81c-.39,.11-.72,.29-.98,.53-.26,.24-.49,.51-.68,.81-.12,.17-.21,.35-.27,.56-.07,.2-.16,.39-.27,.55-.82,1.27-1.52,2.54-2.09,3.82-.58,1.28-.92,2.69-1.02,4.21h0Z"/><path class="b" d="M167.31,30.16l-1.21,1.69s-.02,.11-.07,.23c-.04,.12-.07,.2-.07,.23-.12,.23-.3,.49-.52,.77-.23,.28-.46,.57-.69,.87-.23,.3-.42,.59-.58,.87-.16,.28-.25,.55-.26,.79l8.07,.35c-.07,.03-.15,.06-.24,.09-.09,.03-.14,.08-.14,.15,0,.07,.04,.12,.15,.14,.1,.02,.19,.04,.26,.04,.14,0,.24,0,.32-.03,.07-.03,.19-.04,.37-.03,.07,0,.12,.04,.15,.11,.07-.06,.13-.17,.18-.3,.04-.14,.14-.2,.27-.19,.73,.47,1.23,.87,1.48,1.2,.26,.33,.42,.65,.48,.95,.07,.3,.11,.62,.14,.95,.03,.33,.16,.75,.41,1.26,.03,.04,.05,.09,.04,.16,0,.1-.06,.19-.15,.25-.09,.06-.17,.13-.25,.19,0,.07,.02,.14,.06,.21,.05,.07,.09,.13,.12,.16-.08,.13-.23,.23-.46,.28s-.42,.11-.56,.17c0,.07,0,.13,.04,.19,.03,.05,.04,.12,.04,.19,0,.1-.09,.15-.24,.14-.16-.01-.24,.07-.25,.24-.06-.07-.15-.11-.25-.12-.14,0-.3,.07-.49,.23-.19,.16-.28,.33-.3,.5,.06,.07,.09,.16,.09,.27-.04,.03-.18,.07-.43,.13h-.21s-.05-.04-.05-.07c-.17-.01-.27,.03-.3,.14-.02,.1-.11,.15-.24,.14-.1,0-.21-.03-.31-.07-.1-.04-.22-.07-.36-.08-.04,.03-.12,.07-.24,.11-.13,.04-.2,.06-.24,.06l-1.35-.09c-.1,0-.16,.06-.17,.2,0,.07,0,.14,.04,.21,.03,.07,.04,.14,.04,.21,0,.07-.03,.12-.06,.15l-1.45-.1-.34,.39-10.13-.71c-.07,0-.22-.02-.47-.06-.24-.03-.5-.07-.78-.11-.28-.04-.53-.07-.78-.11-.24-.03-.38-.05-.41-.05l-.26-.02-1.41-2.29c0-.07,0-.23-.02-.47-.02-.24-.02-.4-.02-.47,.14-.55,.39-1.01,.75-1.38,.36-.38,.72-.76,1.1-1.15,.11-.13,.2-.26,.26-.4,.06-.13,.15-.23,.26-.3,1.04-1.39,2-2.78,2.88-4.18,.88-1.4,1.74-2.85,2.57-4.36,.45-.52,.9-1.18,1.34-1.97,.44-.79,.85-1.46,1.24-2.03,.54-.76,1.07-1.53,1.6-2.32,.52-.78,1.06-1.54,1.59-2.26,.12-.17,.23-.37,.33-.6,.1-.24,.23-.44,.38-.6l.92-1.19c.42-.49,.78-1,1.1-1.52,.31-.52,.66-1.04,1.05-1.57-.04-.39-.08-.61-.11-.69s-.17-.12-.41-.13l-.31-.02s-.13-.03-.28-.07c-.15-.05-.25-.07-.28-.07l-.36-.03c-.07,0-.23,0-.47,.02-.24,.02-.4,.02-.47,.02-.59-.04-1.17-.12-1.73-.23-.57-.11-1.14-.18-1.73-.23-.28-.02-.56-.02-.83,0-.28,.02-.56,.01-.83,0-.66-.05-1.27-.14-1.83-.28-.56-.14-1.13-.32-1.71-.54-.17-.08-.25-.19-.24-.33-.17-.01-.35-.08-.53-.19-.18-.12-.27-.26-.26-.44,0-.14,.09-.22,.23-.25-.07-.04-.14-.11-.22-.2-.08-.09-.12-.21-.11-.35,.11-.1,.17-.2,.18-.3,0-.03,0-.07-.02-.11-.01-.04-.02-.07-.02-.11l.2-.25c.13-.16,.28-.35,.43-.54,.15-.2,.31-.39,.46-.57l.23-.27s.06-.01,.08-.05c.02-.03,.05-.05,.08-.05,.28-.05,.52-.17,.7-.37,.19-.2,.36-.41,.51-.64,.08-.1,.12-.23,.13-.41,.01-.17,.06-.29,.13-.36,.32-.12,.67-.18,1.03-.19,.37,0,.74,0,1.12,.03l.57,.04c.21-.02,.47-.05,.79-.08,.32-.03,.94-.01,1.88,.05,.38,.03,.83,.07,1.35,.12,.52,.05,1.12,.12,1.81,.2,.1,0,.17,0,.21-.04,.14,0,.29,.03,.47,.06,.17,.03,.31,.08,.41,.16l1.87,.13h.1s.07,.02,.1,.04c.03,.02,.07,.03,.1,.03l.15,.12c.07,0,.15,0,.24-.04,.09-.03,.17-.04,.24-.04,.14,0,.33,.05,.57,.12,.24,.07,.49,.15,.74,.23,.25,.09,.49,.17,.71,.26,.22,.09,.38,.17,.48,.24l.83,.79c0,.07,.02,.18,.08,.32,.29,.3,.59,.66,.89,1.08,.3,.42,.44,.86,.4,1.31-.01,.17-.06,.34-.14,.51-.08,.17-.13,.34-.14,.51,0,.14-.11,.37-.31,.71-.2,.33-.31,.5-.35,.5-.08,.1-.17,.28-.27,.53-.1,.25-.23,.43-.38,.52-.15,.16-.25,.32-.29,.48-.05,.15-.13,.31-.24,.48l-8.94,14.41h0Zm-9.11-19.06c0,.07-.02,.11-.06,.13-.04,.01-.05,0-.05-.03,0-.07,.04-.1,.11-.1h0Zm19.55,1.78c-.11,.1-.17,.16-.17,.2,.11-.1,.17-.14,.17-.14v-.05h0Zm-19.18-3.38s.02,.07-.03,.1c-.05,.03-.08,.03-.08,0,0-.07,.04-.1,.11-.1h0Z"/><path class="b" d="M112.34,44.57s.04,.04,.04,.12h.25c.14,0,.24,.03,.31,.1,.07,.07,.13,.14,.18,.2,.05,.07,.1,.14,.14,.2,.04,.07,.12,.1,.23,.1h2.86c.03,.11,.12,.16,.29,.16,.6,0,1.15,.18,1.64,.53,.49,.35,1.05,.72,1.68,1.1,0,.03,.1,.14,.31,.35s.33,.33,.39,.39c.14,.16,.34,.42,.61,.76,.27,.34,.55,.76,.84,1.25,.29,.49,.56,1.07,.82,1.74,.26,.67,.46,1.41,.59,2.23,0,.05,0,.16-.02,.31-.01,.15-.03,.32-.06,.51-.03,.19-.06,.36-.1,.51-.04,.15-.08,.24-.1,.27,.05,0,.08,.04,.08,.12,0,.14-.02,.27-.06,.41-.04,.14-.06,.27-.06,.41,0,.03,0,.07,.02,.12,.01,.05,.02,.11,.02,.16,0,.14-.04,.26-.12,.37-.08,.11-.12,.23-.12,.37-.03,.38-.2,1-.53,1.86-.33,.86-.78,1.73-1.35,2.62-.57,.89-1.25,1.66-2.04,2.33-.79,.67-1.65,1-2.58,1-.05,0-.11-.01-.16-.04-.05-.03-.11-.04-.16-.04-.14,0-.28,.04-.43,.12-.15,.08-.29,.12-.43,.12-.11,0-.23-.01-.35-.04-.12-.03-.29-.04-.51-.04-.27,0-.7,.04-1.27,.12,0,.03,.01,.1,.04,.2,.03,.11,.04,.18,.04,.2s-.01,.05-.04,.08c-.03,.03-.04,.05-.04,.08,.05,.57,.09,1.15,.1,1.72,.01,.57,.03,1.14,.06,1.72l.08,2.74c.03,.33,.05,.63,.06,.92,.01,.29,.02,.57,.02,.84,0,1.39-.14,2.41-.43,3.05-.29,.64-.66,1.09-1.12,1.35-.46,.26-1,.41-1.6,.45-.6,.04-1.23,.14-1.88,.31-.08-.84-.14-1.45-.18-1.82-.04-.37-.07-.64-.1-.82-.03-.18-.05-.33-.06-.47-.01-.14-.05-.4-.1-.8-.05-.4-.12-.98-.18-1.76-.07-.78-.17-1.9-.31-3.37-.03-.05-.04-.16-.04-.33v-1.12c0-.18,.01-.29,.04-.35-.05-.05-.08-.12-.08-.2v-.29c0-.16,0-.34-.02-.53-.01-.19-.02-.36-.02-.51v-4.27c0-.05-.01-.2-.04-.45-.03-.25-.04-.4-.04-.45v-1.35c-.05-.11-.08-.31-.08-.61v-.53c0-.22-.02-.44-.06-.67-.04-.23-.06-.46-.06-.67v-.53c0-.27-.03-.46-.08-.57l-.25-3.27s-.05-.08-.06-.16c-.01-.08-.02-.14-.02-.16,0-.11,.03-.19,.08-.25,0-.41-.05-.82-.14-1.23-.1-.41-.14-.82-.14-1.23v-.29c-.05-.03-.1-.18-.12-.47-.03-.29-.04-.46-.04-.51v-.29c0-.11,.01-.23,.04-.37,.03-.14,.14-.2,.33-.2h.29c.03-.14,.05-.32,.08-.55,.03-.23,.07-.42,.12-.55,.03-.08,.18-.12,.45-.12l2.74-1.8c.05,0,.1,.01,.12,.04,.03,.03,.07,.04,.12,.04,.03,0,.12-.03,.29-.08,.16-.05,.35-.11,.57-.16,.25-.08,.5-.18,.78-.29,0-.05,.03-.08,.08-.08h0Zm3.89,14.56c.03-.08,.05-.18,.08-.29,.03-.11,.07-.27,.12-.47,.05-.2,.13-.47,.23-.8,.1-.33,.22-.76,.39-1.31,.05-.35,.09-.71,.1-1.06,.01-.35,.05-.72,.1-1.1-.05,0-.08-.04-.08-.12,0-.03,.01-.05,.04-.08,.03-.03,.04-.05,.04-.08l-.08-.12v-.2c-.14-.46-.31-.85-.53-1.17-.22-.31-.52-.62-.9-.92-.14-.11-.33-.24-.59-.39-.26-.15-.47-.25-.63-.31-.35-.16-.72-.26-1.08-.29-.37-.03-.73-.1-1.08-.2v.33c0,.46,.03,.91,.1,1.35,.07,.44,.13,.87,.18,1.31,.08,1.12,.17,2.24,.27,3.35,.1,1.12,.14,2.24,.14,3.35l-.08,.12c0,.38,.03,.78,.08,1.19,.05,.41,.1,.8,.12,1.19,.03,0,.08-.03,.16-.1,.08-.07,.14-.1,.16-.1,.3-.14,.57-.27,.8-.39,.23-.12,.44-.36,.63-.72l1.31-1.96h0Zm9.32,4.42c0-.35,0-.7,.02-1.04,.01-.34,.08-.67,.18-1v-5.23c.05-.52,.12-1.02,.18-1.51,.07-.49,.17-1.01,.31-1.55,.05,0,.12-.15,.2-.45,.08-.3,.16-.63,.25-1,.08-.37,.16-.72,.23-1.06,.07-.34,.13-.55,.18-.63,.05-.19,.17-.38,.35-.55,.18-.18,.31-.35,.39-.51v-.2c0-.11,.01-.18,.04-.2,0-.05,.1-.08,.29-.06,.19,.01,.34-.05,.45-.18,0-.03,.01-.05,.04-.08,.05-.05,.08-.1,.08-.12,.03-.05,.16-.17,.39-.35,.23-.18,.47-.35,.72-.53,.25-.18,.48-.34,.7-.49,.22-.15,.35-.23,.41-.23,.08,.14,.16,.23,.22,.27,.07,.04,.12,.06,.16,.06h.16c.07,0,.14,.04,.23,.12,.03,.03,.07,.08,.14,.14,.07,.07,.1,.12,.1,.14,.03,0,.05,.01,.06,.04,.01,.03,.05,.04,.1,.04,0,.05,.02,.12,.06,.2,.04,.08,.1,.12,.18,.12,.05,.05,.1,.14,.14,.27,.04,.12,.08,.21,.1,.27,.03,.05,.05,.11,.06,.16,.01,.05,.03,.15,.06,.29,.03,.14,.07,.34,.12,.61,.05,.27,.14,.64,.25,1.1,0,.49-.05,.95-.16,1.39-.11,.44-.19,.89-.25,1.35-.08,.19-.14,.59-.16,1.19-.03,.6-.04,1.3-.04,2.09,0,.68,0,1.37,.02,2.07,.01,.7,.02,1.33,.02,1.9v1.41c0,.37-.03,.55-.08,.55v.76c0,.26,.01,.51,.04,.76,.03,.22,.08,.49,.14,.82,.07,.33,.14,.67,.23,1.04,.08,.37,.18,.72,.29,1.04,.11,.33,.23,.57,.37,.74,.55,.68,1.14,1.2,1.78,1.55,.64,.35,1.41,.53,2.31,.53h.47c.23,0,.37-.01,.43-.04,.05-.05,.1-.11,.12-.16l.12-.25c.05-.08,.14-.28,.25-.59,.11-.31,.23-.65,.35-1.02,.12-.37,.25-.72,.39-1.04,.14-.33,.25-.53,.33-.61,.08-.19,.12-.37,.12-.55s.04-.36,.12-.55v-1.15l.08-.12v-3.19c.05-.3,.07-.69,.04-1.17-.03-.48,.03-.82,.16-1.04v-5.28c0-.08,0-.28-.02-.59-.01-.31-.03-.52-.06-.63-.11-.05-.18-.2-.2-.43-.03-.23-.04-.43-.04-.59,.03-.03,.07-.07,.12-.14,.05-.07,.1-.1,.12-.1s.04-.04,.04-.12v-.16c0-.14-.03-.22-.08-.27-.05-.04-.08-.12-.08-.23,0-.16,.08-.27,.23-.31,.15-.04,.27-.07,.35-.1,.08-.05,.16-.15,.23-.29,.07-.14,.21-.2,.43-.2,.16-.05,.25-.15,.25-.29-.08-.03-.12-.07-.12-.12,0-.08,.1-.18,.29-.29,.19-.11,.42-.21,.67-.31,.26-.1,.51-.18,.76-.25,.25-.07,.42-.1,.53-.1s.18-.03,.22-.08c.04-.05,.1-.08,.18-.08,.46,0,.8,.21,1.02,.63,.22,.42,.4,.81,.53,1.17,0,.03,0,.05,.02,.06,.01,.01,.02,.03,.02,.06,.08-.08,.15-.12,.2-.12,.03,0,.06,.02,.1,.06l.1,.1c.19,.08,.35,.22,.49,.41,.08,.08,.15,.23,.2,.45,.05,.22,.1,.45,.14,.7,.04,.25,.08,.48,.12,.72,.04,.23,.06,.4,.06,.51v.53c0,.14,0,.28,.02,.43,.01,.15,.02,.28,.02,.39,0,.03,0,.05-.02,.06-.01,.01-.02,.03-.02,.06v.08s.02,.08,.06,.14c.04,.07,.06,.12,.06,.14,.03,.16,.05,.35,.06,.57,.01,.22,.02,.42,.02,.61v.37c-.05,.05-.08,.11-.08,.16l.08,.33c0,.46-.03,.91-.08,1.33-.05,.42-.08,.87-.08,1.33v1.08c0,.37,.03,.74,.08,1.12,0,.03,.01,.05,.04,.08,.03,.03,.04,.07,.04,.12,0,.03-.01,.06-.04,.1-.03,.04-.04,.09-.04,.14,0,.03,.01,.1,.04,.2,.03,.11,.04,.19,.04,.25v1.6s0,.05,.02,.08c.01,.03,.02,.05,.02,.08s-.02,.07-.06,.14c-.04,.07-.06,.12-.06,.14s.01,.05,.04,.08v.08s.01,.04,.04,.04c0,.22-.03,.5-.1,.84-.07,.34-.16,.68-.27,1.02-.11,.34-.25,.66-.43,.96-.18,.3-.36,.53-.55,.7,.22-.41,.42-.79,.59-1.15,.18-.35,.27-.76,.27-1.23,0-.03,0-.08-.02-.14-.01-.07-.02-.12-.02-.14-.05-.08-.16-.12-.33-.12-.03,0-.05,0-.08,.02-.03,.01-.05,.02-.08,.02h-.12l-.12,.94c0,.22-.07,.39-.2,.51-.14,.12-.29,.23-.47,.33-.18,.1-.34,.2-.49,.33-.15,.12-.24,.27-.27,.43,.03,0,.05,0,.08-.02,.03-.01,.05-.02,.08-.02l.29,.16c0,.27-.02,.42-.06,.45-.04,.03-.09,.12-.14,.29-.03,0-.05,.06-.06,.18-.01,.12-.02,.21-.02,.27-.05,.35-.14,.69-.25,1-.11,.31-.23,.65-.37,1,0,.05,0,.14-.02,.25-.01,.11-.03,.18-.06,.2-.05,.25-.19,.52-.41,.82-.22,.3-.41,.52-.57,.65-.03,.03-.07,.04-.12,.04-.03,0-.05,.01-.08,.04-.05,.05-.1,.12-.14,.18-.04,.07-.09,.13-.14,.18-.14,.11-.28,.2-.43,.27-.15,.07-.29,.14-.43,.22-.14,.08-.25,.18-.33,.29-.08,.11-.18,.19-.29,.25-.03,0-.1,.02-.2,.06-.11,.04-.18,.06-.2,.06-.22,.08-.41,.18-.57,.31-.16,.12-.35,.24-.57,.35-.03,0-.05,0-.08,.02-.03,.01-.05,.02-.08,.02-.33,.05-.64,.12-.94,.2-.3,.08-.61,.16-.94,.25,0,.03-.01,.04-.04,.04s-.05,.01-.08,.04c-.03,0-.11,.04-.25,.12-.14,.08-.22,.12-.25,.12-.16,.05-.42,.1-.78,.12-.35,.03-.59,.1-.7,.2-.63-.03-1.26-.08-1.9-.16-.64-.08-1.25-.25-1.82-.49-1.06-.44-2.01-1.07-2.84-1.9-.83-.83-1.56-1.72-2.19-2.68-.08-.16-.12-.27-.12-.31s-.05-.17-.16-.39c-.22-.3-.36-.63-.43-.98-.07-.35-.16-.7-.27-1.02-.14-.6-.25-1.18-.35-1.74-.1-.56-.14-1.15-.14-1.78v-.7h0Zm32.64,14.4c-.05-.38-.11-.84-.16-1.37-.05-.53-.11-1.03-.16-1.49-.16-1.01-.29-1.9-.39-2.68-.1-.78-.21-1.56-.35-2.35l-1.76-6.87s-.05-.25-.16-.76c-.11-.5-.23-1.06-.35-1.66-.12-.6-.24-1.15-.35-1.66-.11-.5-.16-.77-.16-.8,0-.22-.08-.47-.25-.76s-.25-.51-.25-.67h-.25c-.55,0-1.13,.07-1.76,.22-.63,.15-1.13,.25-1.51,.31,0-.11-.04-.2-.12-.29h-.94c-.14,0-.23-.16-.29-.47-.05-.31-.08-.51-.08-.59,0-.05,.09-.12,.27-.2,.18-.08,.27-.22,.27-.41,0-.14-.04-.25-.12-.33-.08-.08-.12-.19-.12-.33,0-.19,.11-.42,.33-.67,.22-.26,.35-.46,.41-.59,.16-.71,.66-1.38,1.49-2.02,.83-.64,1.9-1.18,3.21-1.62l1.35-.33c.14,0,.31-.03,.51-.08,.2-.05,.38-.11,.51-.16l2.99-.33c.79-.08,1.6-.16,2.41-.25,.82-.08,1.6-.12,2.33-.12h.37c.38,.08,.57,.16,.57,.25,0,.05-.07,.1-.22,.12-.15,.03-.33,.05-.53,.06-.2,.01-.4,.03-.57,.04-.18,.01-.29,.02-.35,.02l-.94,.2s-.05,0-.06,.02c-.01,.01-.03,.02-.06,.02-.03,.03-.05,.04-.08,.04,.35,.11,.72,.15,1.08,.12,.37-.03,.74-.01,1.12,.04,.49,0,1.01,.07,1.55,.2,.55,.14,.89,.2,1.02,.2,0,.25-.1,.36-.29,.35-.19-.01-.29,.05-.29,.18,0,.19,.04,.3,.12,.33l.08,.7s.01,.05,.04,.08c0,.03,.01,.05,.04,.08-.03,0-.07,.02-.12,.06-.05,.04-.1,.06-.12,.06,0,.11,.03,.16,.08,.16h.57c.05,0,.08,.04,.08,.12,0,.11-.07,.2-.22,.29-.15,.08-.31,.16-.49,.25-.18,.08-.34,.17-.49,.27-.15,.1-.23,.2-.23,.31v.2h.37c0,.05-.08,.12-.25,.2-.16,.08-.27,.15-.33,.2l-.86,.29s-.08,.05-.16,.14c-.08,.1-.12,.17-.12,.22,0,.03,.01,.05,.04,.08,0,.08,.03,.15,.08,.2,.11,0,.18-.01,.2-.04,0,.03,0,.05-.02,.06-.01,.01-.02,.03-.02,.06-.33,.25-.62,.44-.88,.59-.26,.15-.52,.27-.78,.37-.26,.1-.55,.18-.86,.27-.31,.08-.67,.16-1.08,.25,0,.03-.02,.05-.06,.06-.04,.01-.06,.03-.06,.06,0,.33,.05,.67,.14,1.02,.1,.35,.17,.7,.23,1.02,.05,.41,.11,.82,.16,1.23,.05,.41,.11,.88,.16,1.41,.05,.53,.1,1.14,.12,1.82,.03,.68,.04,1.49,.04,2.41v.57c0,.27,.01,.75,.04,1.43,.03,.68,.05,1.62,.08,2.8,.03,1.19,.07,2.73,.12,4.64,.03,.05,.05,.18,.08,.37,.03,.19,.04,.38,.04,.57,0,.16-.03,.31-.08,.43-.05,.12-.15,.18-.29,.18-.14,.27-.22,.48-.25,.61-.03,.14-.07,.25-.12,.33-.05,.08-.15,.16-.29,.23-.14,.07-.38,.18-.74,.35l-1.1,.53-.27-.02c-.18-.01-.37-.03-.59-.06-.22-.03-.42-.05-.61-.06-.19-.01-.29-.03-.29-.06l-.04-.25h0Z"/><path class="b" d="M185.22,55.32s-.23,.05-.67,.08c-.45,.03-.95,.05-1.51,.06-.56,.01-1.07,.03-1.53,.06-.46,.03-.71,.04-.74,.04-.03-.03-.08-.05-.16-.06-.08-.01-.15-.02-.2-.02-.14,0-.28,.01-.43,.04s-.28,.05-.39,.08l-1.15,.25c-.05,.05-.1,.08-.12,.08s-.05,0-.06-.02c-.01-.01-.03-.02-.06-.02-.11,0-.19,.1-.25,.29l.08,.16h.37c.35,0,.7-.03,1.02-.08,.33-.05,.67-.08,1.02-.08h.45c.05,0,.2,.01,.45,.04,.25,.03,.4,.04,.45,.04,.3,0,.61-.05,.94-.14,.33-.1,.6-.14,.82-.14l-.37,.29c-.05,0-.08,.03-.08,.08,.14,.14,.31,.2,.53,.2,.11,0,.2-.01,.29-.04,.08-.03,.2-.04,.37-.04-.14,.05-.21,.12-.22,.18-.01,.07-.05,.13-.1,.18-.05,.05-.25,.1-.57,.12-.33,.03-.57,.08-.74,.16h-1.92c-.11-.05-.26-.08-.45-.08h-.29c-.82,0-1.68,.02-2.58,.06-.9,.04-1.72,.14-2.45,.31,0,.3,.01,.59,.04,.86,.03,.27,.05,.56,.08,.86v.33c0,.44-.02,.87-.06,1.29s-.06,.85-.06,1.29c.03,.03,.08,.05,.14,.06,.07,.01,.12,.02,.14,.02h1.06c.14,.05,.24,.14,.31,.25,.07,.11,.16,.18,.27,.2,.44,.08,.87,.15,1.29,.2,.42,.05,.82,.14,1.19,.25,.37,.11,.68,.27,.94,.49,.26,.22,.44,.53,.55,.94l-.7,4.13c-.08,.41-.23,.73-.45,.96-.22,.23-.44,.4-.65,.51-.22,.11-.42,.18-.61,.2-.19,.03-.33,.04-.41,.04-.03,0-.2,.02-.51,.06-.31,.04-.65,.08-1.02,.12-.37,.04-.71,.07-1.02,.1-.31,.03-.48,.04-.51,.04h-.16c-.16,0-.27,.04-.33,.12l.08,.45c0,.19-.02,.37-.06,.53-.04,.16-.06,.34-.06,.53v.74c0,.27,.01,.44,.04,.49,.03,0,.11,.02,.25,.06,.14,.04,.23,.06,.29,.06,.19,0,.41-.04,.65-.12,.25-.08,.45-.14,.61-.16,.87-.08,1.76-.15,2.66-.2,.9-.05,1.79-.08,2.66-.08,.22,0,.44,0,.67-.02,.23-.01,.47-.02,.72-.02,.33,0,.64,.02,.94,.06s.57,.14,.8,.29c.23,.15,.42,.37,.55,.65,.14,.29,.2,.67,.2,1.17v.2c-.03,.38-.17,.77-.43,1.17-.26,.4-.63,.76-1.12,1.08-.49,.33-1.1,.6-1.82,.82-.72,.22-1.56,.34-2.52,.37-.19,.08-.53,.14-1.02,.18-.49,.04-1,.08-1.51,.1-.52,.03-.99,.07-1.41,.12-.42,.05-.66,.14-.72,.25,.08,.14,.25,.22,.51,.25,.26,.03,.51,.04,.76,.04h.49c.08,0,.21,0,.39,.02,.18,.01,.36,.02,.55,.02s.38,0,.55,.02c.18,.01,.31,.02,.39,.02,.05-.05,.14-.08,.25-.08h.16c.63-.03,1.25-.15,1.88-.37,.05,0,.16-.05,.33-.16,.16-.11,.29-.16,.37-.16-.03,0-.04,.01-.04,.04-.03,.03-.04,.08-.04,.16l.16,.2c-.38,.22-.85,.37-1.39,.45-.55,.08-1.05,.15-1.51,.2h-2c-.27,0-.55,0-.82,.02-.27,.01-.56,.02-.86,.02-.93,0-1.7-.12-2.33-.37-.63-.25-1.32-.52-2.09-.82-.22-.22-.49-.5-.82-.84-.33-.34-.64-.51-.94-.51-.03,0-.04,0-.04,.02s-.01,.02-.04,.02c-.03,.03-.05,.04-.08,.04-.27-.05-.4-.13-.37-.22,.03-.1-.03-.17-.16-.23l-.04-.29v-.16c0-.14,.02-.25,.06-.33,.04-.08,.07-.2,.1-.37,.05-.49,.08-.98,.08-1.47s.03-1.01,.08-1.55c.03-.16,.05-.35,.06-.55,.01-.2,.02-.42,.02-.63,0-.25-.01-.42-.04-.53,0-.11-.02-.2-.06-.29-.04-.08-.07-.18-.1-.29v-.41c0-.41,.02-.89,.06-1.43,.04-.55,.08-.99,.1-1.35,.03-.19,.04-.38,.04-.57v-2.41c0-.05,0-.12,.02-.18,.01-.07,.02-.13,.02-.18s0-.12,.02-.2c.01-.08,.02-.16,.02-.25,.03-.63,.08-1.43,.16-2.41,.08-.98,.2-2.03,.35-3.15,.15-1.12,.35-2.26,.59-3.44,.25-1.17,.55-2.28,.9-3.31,.03,0,.27-.02,.74-.06,.46-.04,.97-.07,1.53-.1,.56-.03,1.07-.05,1.53-.08,.46-.03,.71-.04,.74-.04s.1,.01,.2,.04c.11,.03,.18,.04,.2,.04,.19,0,.36-.01,.51-.04,.15-.03,.29-.07,.43-.12,0-.03,.18-.06,.53-.1,.35-.04,.81-.09,1.37-.14,.56-.05,1.17-.1,1.82-.14,.65-.04,1.3-.06,1.92-.06,.76,0,1.42,.04,1.96,.12,.55,.08,.85,.25,.9,.49l.2,4.05h0Zm-.82,1.23c0,.08-.03,.12-.08,.12,0-.08,.03-.12,.08-.12h0Zm6.22,20.45c0-.11-.04-.27-.12-.49-.08-.22-.15-.4-.2-.53-.08-.38-.12-.74-.12-1.06s-.03-.68-.08-1.06c-.03-.3-.08-.6-.14-.9-.07-.3-.13-.6-.18-.9-.03-.14-.06-.38-.1-.74-.04-.35-.09-.73-.14-1.12-.05-.4-.1-.77-.14-1.12-.04-.35-.06-.6-.06-.74-.05-.05-.1-.16-.14-.31-.04-.15-.06-.29-.06-.43l-.57-6.75c0-.22-.03-.5-.1-.86-.07-.35-.1-.7-.1-1.02v-.16l-.29-3.84c0-.05-.01-.18-.04-.39-.03-.2-.04-.33-.04-.39,0-.08,0-.27,.02-.57,.01-.3,.02-.48,.02-.53-.03-.03-.06-.14-.1-.35-.04-.2-.09-.36-.14-.47-.05-.3-.11-.62-.16-.96-.05-.34-.08-.67-.08-1v-.29c.08-.11,.23-.34,.45-.7,.22-.35,.44-.72,.67-1.08,.23-.37,.46-.7,.67-.98,.22-.29,.37-.43,.45-.43,.14,0,.27,.02,.39,.06,.12,.04,.25,.08,.39,.1l.12-.08c.08,.05,.13,.12,.14,.18,.01,.07,.08,.12,.18,.14,.03,0,.13-.05,.31-.14,.18-.1,.37-.2,.57-.33,.2-.12,.4-.24,.59-.35,.19-.11,.33-.18,.41-.2,.76-.22,1.51-.4,2.23-.53,.72-.14,1.48-.2,2.27-.2,.14,0,.28,0,.43,.02,.15,.01,.29,.02,.43,.02,.63,.05,1.23,.22,1.82,.49,.59,.27,1.17,.57,1.74,.9l.16,.12c.49,.33,.95,.72,1.39,1.19,.44,.46,.8,.97,1.1,1.51,.08,.14,.14,.31,.16,.51,.03,.2,.08,.38,.16,.51,.11,.19,.25,.4,.43,.61,.18,.22,.29,.44,.35,.65,.14,.63,.2,1.21,.2,1.76v.37c0,.14-.02,.25-.06,.33-.04,.08-.06,.19-.06,.33,0,.05,.01,.11,.04,.16,.03,.05,.04,.11,.04,.16-.03,.22-.1,.44-.22,.67-.12,.23-.23,.46-.31,.67l-.08,.16c-.25,.46-.5,.95-.78,1.47-.27,.52-.6,.97-.98,1.35-.25,.16-.53,.33-.86,.51-.33,.18-.59,.36-.78,.55l-.25,.29s-.04,.05-.04,.08,0,.05-.02,.06c-.01,.01-.02,0-.02-.02-.05,.08-.17,.19-.35,.33-.18,.14-.36,.28-.55,.43-.19,.15-.36,.3-.51,.45-.15,.15-.22,.27-.22,.35l1.92,2.17s.03,.05,.08,.08c.05,.03,.08,.05,.08,.08,.14,.19,.31,.36,.53,.51,.22,.15,.42,.32,.61,.51,0,.03,.01,.05,.04,.08,0,.03,0,.04,.02,.04s.02,.01,.02,.04,.01,.04,.04,.04l.25,.08c.22,.11,.41,.27,.57,.47,.16,.2,.33,.38,.49,.51,.22,.22,.47,.38,.76,.49,.29,.11,.54,.27,.76,.49,.14,.16,.47,.42,1,.76,.53,.34,1.23,.76,2.11,1.25,.3,.05,.61,.18,.94,.39,.33,.2,.57,.44,.74,.72-.14-.03-.25-.1-.35-.2-.1-.11-.25-.18-.47-.2-.05,0-.08,.07-.08,.2,0,.11,.02,.29,.06,.55,.04,.26,.13,.65,.27,1.17l-.04,.29c-.03,.05-.04,.15-.04,.29v1.27c-.03,.44-.15,.82-.37,1.17-.22,.34-.68,.51-1.39,.51h-.2c-.05,0-.12,0-.2-.02-.08-.01-.23-.03-.45-.06-.22-.03-.52-.07-.9-.12-.38-.05-.91-.14-1.6-.25l-1.88-1.14c-.3-.14-.59-.33-.88-.59-.29-.26-.58-.43-.88-.51l-4.01-3.15c-.19-.3-.43-.53-.72-.7-.29-.16-.52-.4-.72-.7v.33l.2,1.76c0,.08,.02,.16,.06,.22,.04,.07,.06,.17,.06,.31,.05,.22,.11,.4,.16,.55,.05,.15,.15,.32,.29,.51,.14,.22,.24,.57,.31,1.06,.07,.49,.1,.91,.1,1.27v.25c-.11-.03-.17-.09-.18-.18-.01-.1-.09-.16-.22-.18,0-.05,.01-.09,.04-.1,.03-.01,.04-.09,.04-.23-.05-.3-.12-.61-.2-.92-.08-.31-.19-.61-.33-.88,0-.03-.01-.04-.04-.04-.05,0-.08-.01-.08-.04-.11,0-.2,.09-.27,.27-.07,.18-.12,.31-.14,.39,.08,.27,.16,.6,.23,.98,.07,.38,.1,.72,.1,1.02v.16c0,.11-.03,.16-.08,.16s-.11,.04-.16,.12c-.05,.05-.1,.14-.14,.27-.04,.12-.1,.26-.16,.41-.07,.15-.13,.28-.18,.39-.05,.11-.1,.16-.12,.16-.11,0-.22-.04-.33-.12,0,.03-.03,.1-.1,.2-.07,.11-.12,.18-.14,.2,0,.03-.03,.07-.08,.12l-.08,.08c-.11,.22-.14,.35-.1,.41,.04,.05-.08,.11-.35,.16-.05,0-.08,.04-.08,.12,0,.03,0,.05,.02,.06,.01,.01,.02,.03,.02,.06s-.03,.07-.08,.12c-.14,0-.22,.05-.25,.16,0,.05,.01,.12,.04,.18,.03,.07,.04,.13,.04,.18-.03,.25-.13,.35-.31,.31-.18-.04-.33,0-.47,.1-.03,.05-.05,.1-.08,.12-.03,.05-.07,.11-.12,.16l-.25-.29c-.05,.05-.14,.08-.25,.08-.08-.03-.16-.06-.23-.1-.07-.04-.13-.06-.18-.06,.03,.05,.07,.12,.12,.2,.05,.05,.09,.11,.1,.16,.01,.05,.05,.11,.1,.16,0,.03,.03,.06,.08,.1,.05,.04,.08,.1,.08,.18-.11,0-.22-.08-.35-.25-.12-.16-.24-.35-.35-.55-.11-.2-.21-.41-.31-.61-.1-.2-.16-.36-.18-.47l-.45-1.23h0Zm4.01-17.1c0,.16,.07,.3,.2,.41s.31,.2,.51,.27c.2,.07,.41,.12,.61,.16,.2,.04,.39,.07,.55,.1,0-.05,.03-.1,.1-.14,.07-.04,.25-.1,.55-.18,.05-.03,.14-.09,.27-.18,.12-.1,.25-.2,.37-.33,.12-.12,.24-.24,.35-.35,.11-.11,.19-.19,.25-.25,.16-.14,.33-.33,.51-.59,.18-.26,.29-.46,.35-.59,.38-.63,.7-1.25,.94-1.86,.25-.61,.4-1.27,.45-1.98,0-.14-.03-.27-.1-.41-.07-.14-.13-.26-.18-.37-.52-.76-1.2-1.42-2.04-1.98-.85-.56-1.7-.87-2.58-.92-.14,0-.25,0-.35-.02-.1-.01-.18-.02-.27-.02s-.17,0-.27,.02c-.1,.01-.21,.02-.35,.02-.11,.03-.33,.09-.65,.18-.33,.1-.49,.21-.49,.35,0,.19,.05,.4,.14,.61,.1,.22,.16,.42,.18,.61l.7,5.56c.03,.08,.05,.19,.06,.33,.01,.14,.03,.29,.06,.45,.03,.16,.05,.32,.06,.47,.01,.15,.03,.25,.06,.31,.05,.05,.1,.1,.14,.14,.04,.04,.06,.12,.06,.23l-.2-.04h0Zm19.55-10.27c-.05-.03-.08-.1-.08-.2,0-.14,.1-.29,.31-.47,.2-.18,.47-.35,.8-.51,.33-.16,.68-.3,1.06-.41,.38-.11,.76-.16,1.15-.16,.44,0,.77,.03,1,.08,.23,.05,.43,.14,.59,.27,.16,.12,.32,.28,.47,.47,.15,.19,.36,.44,.63,.74,.46,.55,.88,1.04,1.25,1.49,.37,.45,.74,.96,1.12,1.53l.12,.12c.08,.11,.18,.26,.29,.45,.11,.19,.23,.4,.35,.61,.12,.22,.24,.42,.35,.59,.11,.18,.2,.31,.29,.39,.46,.74,.91,1.49,1.35,2.27,.44,.78,.91,1.52,1.43,2.23l.45,.57c.11,.14,.24,.3,.39,.49,.15,.19,.25,.37,.31,.53,.03-.19,.06-.65,.1-1.37,.04-.72,.08-1.53,.12-2.41,.04-.89,.07-1.77,.08-2.66,.01-.89,.02-1.57,.02-2.07v-.65c0-.05,.01-.17,.04-.35,.03-.18,.05-.31,.08-.39,.05-.16,.16-.25,.33-.25,0,.03,0,.04,.02,.04s.02,.01,.02,.04,.01,.04,.04,.04c0,.16,.01,.43,.04,.8,.03,.37,.05,.78,.06,1.25,.01,.46,.03,.96,.04,1.49,.01,.53,.02,1.06,.02,1.57,0,.57-.01,1.12-.04,1.64-.03,.52-.07,.97-.12,1.35,0,.14-.03,.29-.08,.45-.05,.16-.08,.31-.08,.45l.08,.12v.2c0,.22-.04,.42-.12,.61-.08,.19-.12,.35-.12,.49,0,.11,.05,.27,.16,.49,.11,.22,.23,.33,.37,.33,0-.11,0-.31-.02-.61-.01-.3-.02-.5-.02-.61,.03-.14,.05-.27,.08-.39,.03-.12,.04-.25,.04-.39l-.04-.16c0-.08,0-.23,.02-.45,.01-.22,.05-.37,.1-.45l-.2-8.96c.08-.11,.14-.23,.18-.37,.04-.14,.07-.26,.1-.37l.08-.04s.05-.01,.08-.04c.22-.11,.4-.19,.55-.25,.15-.05,.29-.16,.43-.33,.05-.05,.09-.11,.1-.16,.01-.05,.06-.08,.14-.08l.12,.04h.2c.14,0,.23-.07,.27-.22,.04-.15,.13-.23,.27-.23,0,.03,.01,.04,.04,.04,.03,.03,.05,.04,.08,.04l.08,.04h.08c.05,0,.14-.01,.25-.04,.11-.03,.18-.05,.2-.08,.05-.03,.1-.07,.14-.14,.04-.07,.09-.1,.14-.1,.25,.14,.45,.43,.61,.88,.16,.45,.29,1,.37,1.64,.08,.64,.14,1.34,.18,2.09,.04,.75,.06,1.51,.06,2.27,0,1.04-.01,2-.04,2.88-.03,.89-.05,1.55-.08,1.98-.08,1.06-.12,2.13-.1,3.21,.01,1.08-.06,2.13-.22,3.17-.03,.08-.12,.37-.29,.88-.16,.5-.34,1.04-.53,1.62-.19,.57-.37,1.09-.53,1.55-.16,.46-.26,.7-.29,.7,0-.08,0-.16,.02-.23,.01-.07,.02-.13,.02-.18s-.01-.1-.04-.12l-.12-.16s-.04,.01-.04,.04v.08s-.05,.09-.08,.18c-.03,.1-.05,.16-.08,.18-.08,0-.15,.02-.2,.06-.05,.04-.18,.11-.39,.2-.2,.1-.5,.23-.9,.39-.4,.16-.96,.35-1.7,.57v-.2c-.05,0-.11,.02-.16,.06-.05,.04-.08,.09-.08,.14s0,.12,.02,.18c.01,.07,.02,.13,.02,.18s-.03,.08-.08,.08h-.12c-.11,0-.2-.01-.29-.04-.08-.03-.18-.05-.29-.08-.38-.41-.7-.87-.96-1.39-.26-.52-.55-.99-.88-1.43l-.08-.08-.04-.04c-.25-.41-.39-.66-.43-.76-.04-.1-.06-.16-.06-.18,0-.08-.05-.12-.16-.12-.16-.27-.34-.54-.53-.8-.19-.26-.38-.52-.57-.8l-1.8-2.49c-.25-.38-.5-.74-.76-1.08-.26-.34-.5-.7-.72-1.08-.11-.19-.2-.38-.27-.55-.07-.18-.17-.36-.31-.55,0-.08-.09-.25-.27-.49-.18-.25-.28-.35-.31-.33l-.08,.25v6.63c-.05,.22-.09,.45-.1,.7-.01,.25-.03,.48-.06,.7-.03,.22-.1,.46-.2,.72-.11,.26-.22,.5-.33,.72-.08,.14-.17,.35-.27,.63-.1,.29-.18,.59-.27,.9-.08,.31-.15,.61-.2,.9-.05,.29-.08,.51-.08,.67v.41s.01,.04,.04,.04c0,.05,0,.12-.02,.18-.01,.07-.02,.12-.02,.14-.11-.11-.2-.16-.29-.16l-.29,.37c0,.05,0,.1-.02,.12-.01,.03-.02,.07-.02,.12v.12c-.08,0-.26,.08-.53,.23-.27,.15-.58,.31-.92,.49-.34,.18-.7,.36-1.08,.55-.38,.19-.71,.33-.98,.41-.05,0-.11,.03-.16,.1-.05,.07-.12,.13-.2,.18-.11-.22-.2-.41-.29-.57-.08-.16-.12-.37-.12-.61,0-.22,0-.46,.02-.74,.01-.27,0-.78-.06-1.51,0-.05,.01-.1,.04-.12,.05-.05,.08-.1,.08-.12s-.01-.1-.04-.22c-.03-.12-.04-.2-.04-.23,.03-.3,.07-.6,.12-.9,.05-.3,.11-.6,.16-.9v-.08s0-.05,.02-.06c.01-.01,.02-.03,.02-.06l.08-.08s.04-.05,.04-.08l-.04-.08v-.04s0-.05,.02-.08c.01-.03,.02-.05,.02-.08l-.04-.12c.14-.6,.22-1.17,.25-1.72,.03-.14,.07-.24,.12-.31,.05-.07,.08-.2,.08-.39l-.12-.08,.04-.82,.04-.08s.01-.04,.04-.04c-.03,0-.04-.01-.04-.04v-.12c-.03-.05-.04-.11-.04-.16v-.86c.05,0,.08-.04,.08-.12-.03-.03-.04-.05-.04-.08-.03-.03-.04-.07-.04-.12,0-.85,0-1.71,.02-2.6,.01-.89,.06-1.75,.14-2.6,.03-.44,.08-.9,.16-1.39,.08-.49,.16-1.08,.25-1.78,.08-.7,.16-1.53,.25-2.52,.08-.98,.15-2.18,.2-3.6h0Zm17.59-2.09c.05,0,.08,.07,.08,.2-.05-.11-.08-.18-.08-.2h0Zm-19.22,26.66s-.04,.05-.04,.08v.04l.04-.12h0Z"/><path class="b" d="M236.3,72.17c0-.05-.01-.14-.04-.27-.03-.12-.04-.21-.04-.27,0-.87,.03-1.79,.08-2.74,.05-.95,.08-2.1,.08-3.44,0-.33,0-.67-.02-1.02-.01-.35-.02-.72-.02-1.1l.08-.12s-.03-.07-.08-.12c-.03-.03-.04-.05-.04-.08-.14,.14-.2,.26-.2,.37,0,.16,.03,.37,.1,.63,.07,.26,.1,.8,.1,1.62,0,.38-.01,.81-.04,1.29-.03,.48-.07,1.06-.12,1.74,0,.16-.03,.28-.08,.35-.05,.07-.11,.2-.16,.39l-.08-.82s-.02,.07-.06,.12c-.04,.05-.06,.1-.06,.12-.03-.05-.04-.12-.04-.2v-.25c0-.05,.01-.1,.04-.12l.16,.2v-.2c0-.05,0-.11-.02-.16-.01-.05-.06-.1-.14-.12,0-.03,0-.09-.02-.18-.01-.1-.02-.29-.02-.59v-3.89c0-.68,.03-1.35,.1-2,.07-.65,.13-1.31,.18-1.96,.03-.41,.05-.91,.08-1.51,.03-.6,.14-1.09,.33-1.47l.2-1.8c0-.08,0-.26,.02-.53,.01-.27,.02-.44,.02-.49,0-.11,.02-.31,.06-.59,.04-.29,.09-.58,.14-.88,.05-.3,.13-.57,.23-.8,.1-.23,.21-.36,.35-.39h.2c0,.14,.01,.22,.04,.25,.03,.03,.04,.03,.04,0,.05,0,.08-.03,.08-.08,0-.22-.02-.43-.06-.63-.04-.2-.06-.4-.06-.59,0-.16,.06-.27,.18-.31,.12-.04,.18-.14,.18-.31,0-.08-.05-.15-.16-.2l4.34-1.02c.08,.05,.12,.12,.12,.18s.03,.16,.08,.27c.3,.19,.59,.34,.88,.45,.29,.11,.43,.41,.43,.9,0,.33-.1,.78-.29,1.35-.05,.08-.1,.18-.12,.31-.03,.12-.04,.24-.04,.35,0,.14,0,.28,.02,.43,.01,.15,.02,.29,.02,.43,0,.22-.01,.37-.04,.45v.57c0,1.23-.09,2.41-.27,3.54-.18,1.13-.27,2.31-.27,3.54,0,.44,.01,.87,.04,1.29,.03,.42,.04,.84,.04,1.25,0,.3-.01,.59-.04,.86-.03,.27-.04,.56-.04,.86,0,.03,0,.08,.02,.14,.01,.07,.02,.12,.02,.14l-.04,.16v.2c-.03,.11-.05,.36-.08,.76-.03,.4-.04,.65-.04,.76-.03,.19-.09,.58-.18,1.17-.1,.59-.22,1.25-.37,2-.15,.75-.33,1.53-.53,2.35-.2,.82-.43,1.57-.67,2.25-.25,.68-.5,1.25-.78,1.7-.27,.45-.55,.67-.82,.67-.03,0-.05,0-.06-.02-.01-.01-.03-.02-.06-.02-.16,0-.4-.05-.7-.16-.3-.11-.59-.3-.88-.57-.29-.27-.54-.63-.76-1.06-.22-.44-.33-.97-.33-1.6v-.78c0-.19,0-.38-.02-.57-.01-.19-.05-.3-.1-.33h0Zm.9-21.43v-.29l.16,.25-.16,.04h0Zm11.9,23.15c-.38-.22-.77-.42-1.17-.59-.4-.18-.77-.42-1.12-.72-.05-.05-.15-.16-.29-.31-.14-.15-.23-.25-.29-.31-.05-.05-.1-.12-.12-.18-.03-.07-.07-.13-.12-.18-.46-.79-.79-1.56-.98-2.31-.19-.75-.29-1.57-.29-2.47v-.86c.03-.25,.06-.6,.1-1.06,.04-.46,.07-.74,.1-.82l.08-.65c.11-.74,.21-1.46,.31-2.17,.1-.71,.27-1.4,.51-2.09l.04-.04s.04-.05,.04-.06,.01-.03,.04-.06l.08-.16c.05-.11,.14-.29,.27-.53,.12-.25,.25-.51,.37-.8,.12-.29,.25-.55,.37-.8,.12-.25,.21-.41,.27-.49,.05-.05,.15-.22,.29-.49,.14-.27,.23-.46,.29-.57,.63-1.09,1.29-1.97,1.98-2.64,.7-.67,1.56-1.36,2.6-2.07,.03,0,.2-.03,.51-.1,.31-.07,.5-.13,.55-.18,.14-.08,.27-.18,.39-.31,.12-.12,.25-.24,.39-.35,.49-.33,1.04-.6,1.64-.82,.05-.05,.18-.1,.39-.14,.2-.04,.58-.06,1.12-.06,.05,.05,.11,.1,.16,.14,.05,.04,.11,.09,.16,.14l.25,.16c.05,.16,.08,.25,.08,.25v.04c0,.08,.05,.18,.14,.29,.1,.11,.2,.16,.31,.16h1.35c.84,.25,1.52,.76,2.02,1.55,.5,.79,.88,2.02,1.12,3.68l-.04,.2c0,.05,0,.12,.02,.18,.01,.07,.02,.13,.02,.18,0,.11,0,.18-.02,.23-.01,.04-.08,.12-.18,.22-.05,.05-.31,.16-.76,.33-.45,.16-1.15,.61-2.11,1.35,0,.08,.01,.16,.04,.25,.03,.08,.04,.16,.04,.25-.14,0-.21-.07-.23-.2-.01-.14-.07-.2-.18-.2-.14,0-.2,.05-.2,.14s-.04,.18-.12,.27c-.03-.05-.07-.14-.12-.25-.05-.11-.12-.16-.2-.16-.05,0-.11,.03-.16,.08-.05,.05-.08,.1-.08,.12-.08-.08-.14-.12-.16-.12-.03,.03-.05,.04-.08,.04s-.05,0-.08,.02c-.03,.01-.05,.02-.08,.02-.08,0-.12-.03-.12-.08-.08-.38-.17-.76-.27-1.12-.1-.37-.21-.73-.35-1.08-.05-.08-.14-.12-.25-.12-.16,0-.25,.04-.25,.12-.9,.49-1.64,1.09-2.21,1.8-.57,.71-1.06,1.53-1.47,2.45l-.08,.16s-.04,.05-.04,.06-.01,.03-.04,.06l-.04,.04-.33,.65v.25c-.03,.16-.07,.29-.14,.37-.07,.08-.13,.2-.18,.37l-.33,1.64c-.05,.05-.09,.19-.1,.41-.01,.22-.02,.46-.02,.74s0,.53-.02,.78c-.01,.25-.05,.41-.1,.49v1.02c0,.63,.05,1.22,.14,1.78,.1,.56,.33,1.11,.72,1.66,.14,.16,.25,.28,.33,.35,.08,.07,.22,.1,.41,.1,.33,0,.63-.08,.9-.25,.27-.16,.54-.35,.8-.57,.26-.22,.52-.46,.78-.72,.26-.26,.51-.47,.76-.63,.14-.08,.31-.16,.51-.23,.2-.07,.39-.13,.55-.18,.11-.03,.2-.08,.27-.16,.07-.08,.16-.15,.27-.2l1.23-.53c.22-.08,.46-.13,.72-.14,.26-.01,.5-.03,.72-.06,0,.08-.01,.12-.04,.12,.16,0,.31-.08,.45-.25v.41c.33,0,.49,.11,.49,.33s-.06,.55-.18,.98c-.12,.44-.21,1.04-.27,1.8,0,.03,0,.05,.02,.08,.01,.03,.02,.07,.02,.12,0,.03,0,.05-.02,.06-.01,.01-.02,.03-.02,.06v.08l-.12,.25c0,.11,.05,.16,.16,.16,.14,0,.26-.05,.37-.16,.05,.03,.08,.1,.08,.2s-.07,.19-.22,.25c-.15,.05-.25,.12-.31,.2-.03,.03-.05,.1-.08,.2-.03,.11-.04,.18-.04,.2-.05,.14-.16,.27-.31,.41-.15,.14-.27,.26-.35,.37-.14,.14-.25,.29-.33,.45-.08,.16-.19,.3-.33,.41-.9,.63-1.83,1.12-2.8,1.49-.97,.37-2.02,.55-3.17,.55-.46,0-.93-.06-1.41-.18-.48-.12-.95-.28-1.41-.47-.16-.08-.3-.13-.41-.14-.11-.01-.26-.08-.45-.18-.19-.14-.4-.28-.61-.43-.22-.15-.42-.29-.61-.43l-.04-.08-.04-.04h0Z"/><path class="b" d="M90.14,97.28c-.1-.05-.19-.09-.29-.12-.1-.04-.19-.09-.29-.15-.01-.01-.04-.04-.07-.07-.04-.03-.06-.06-.07-.07-.01-.01-.03-.03-.03-.04,0-.02-.02-.03-.03-.04-.13-.18-.22-.37-.28-.54-.06-.18-.1-.38-.11-.6v-.21c-.01-.06,0-.15,0-.26,0-.11,0-.18,.01-.2v-.16c.02-.18,.04-.36,.05-.53,.01-.17,.04-.35,.09-.52h0s0-.02,0-.03c0,0,0,0,0-.02l.02-.04s.03-.07,.06-.13c.03-.06,.05-.13,.08-.2,.03-.07,.05-.14,.08-.2,.03-.06,.04-.1,.06-.12,.01-.01,.03-.06,.06-.12l.06-.14c.13-.28,.28-.5,.44-.67,.16-.17,.36-.36,.6-.55,0,0,.05-.01,.12-.03,.08-.02,.12-.04,.13-.05,.03-.02,.06-.05,.09-.08,.03-.03,.06-.06,.09-.09,.11-.09,.24-.16,.38-.23,.01-.01,.04-.03,.09-.04,.05-.01,.14-.02,.27-.03,.01,.01,.03,.02,.04,.03,.01,0,.03,.02,.04,.03l.06,.04,.02,.06h0s.01,.05,.04,.08c.03,.02,.05,.04,.08,.03l.33-.02c.21,.05,.38,.16,.52,.34,.14,.18,.25,.48,.34,.88v.05s0,.03,0,.04c0,.02,0,.03,0,.04,0,.03,0,.04,0,.06,0,0-.02,.03-.04,.06-.01,.01-.07,.04-.18,.09-.11,.05-.27,.17-.49,.36,0,.02,0,.04,.01,.06,0,.02,.01,.04,.01,.06-.03,0-.05-.01-.06-.05,0-.03-.02-.05-.05-.05-.03,0-.05,.01-.05,.04,0,.02,0,.05-.03,.07l-.03-.06s-.03-.04-.05-.04c-.01,0-.03,0-.04,.02-.01,.01-.02,.02-.02,.03-.02-.02-.04-.03-.04-.03,0,0-.01,.01-.02,.01,0,0-.01,0-.02,0,0,0-.01,0-.02,0-.02,0-.03,0-.03-.02-.03-.09-.05-.18-.08-.27-.03-.09-.06-.17-.1-.26-.01-.02-.04-.03-.06-.03-.04,0-.06,.01-.06,.03-.21,.13-.38,.29-.51,.47-.13,.18-.23,.39-.32,.62l-.02,.04s0,.01,0,.02c0,0,0,0,0,.02h0l-.07,.18v.06s0,.07-.02,.09c-.02,.02-.03,.05-.04,.09l-.05,.4s-.02,.05-.02,.1c0,.05,0,.11,0,.18,0,.07,0,.13,0,.19,0,.06,0,.1-.02,.12l.02,.25c.01,.15,.03,.3,.06,.43,.03,.13,.1,.26,.2,.39,.04,.04,.06,.06,.09,.08,.02,.02,.05,.02,.1,.02,.08,0,.15-.03,.21-.07,.06-.04,.12-.1,.18-.15,.06-.06,.12-.12,.18-.19,.06-.07,.12-.12,.17-.17,.03-.02,.07-.04,.12-.06,.05-.02,.09-.04,.13-.05,.03,0,.05-.02,.06-.04,.01-.02,.04-.04,.06-.05l.29-.15c.05-.02,.11-.04,.17-.05,.06,0,.12-.02,.17-.03,0,.02,0,.03,0,.03,.04,0,.07-.02,.1-.07v.1c.09,0,.13,.02,.13,.07,0,.05,0,.13-.03,.24-.02,.11-.03,.26-.03,.44,0,0,0,.01,0,.02,0,0,0,.02,0,.03,0,0,0,.01,0,.02,0,0,0,0,0,.02v.02l-.02,.06s.02,.04,.04,.04c.03,0,.06-.02,.09-.05,.01,0,.02,.02,.02,.05,0,.03-.01,.05-.05,.06-.04,.02-.06,.03-.07,.06,0,0-.01,.02-.02,.05,0,.03,0,.04,0,.05-.01,.03-.03,.07-.07,.1-.03,.04-.06,.07-.08,.1-.03,.04-.05,.07-.07,.11-.02,.04-.04,.08-.07,.11-.21,.17-.43,.3-.66,.41-.23,.11-.48,.17-.76,.19-.11,0-.23,0-.35-.02-.12-.02-.23-.05-.35-.09-.04-.02-.08-.03-.1-.03-.03,0-.06-.01-.11-.04-.05-.03-.1-.06-.16-.09-.06-.03-.11-.06-.16-.09v-.02h-.02Zm48.7-3.2s-.04-.03-.09-.04c-.04-.02-.08-.03-.12-.04h-.04v-.04s-.05-.06-.07-.07c-.02-.01-.04-.04-.05-.07l-.11-.3s0-.05-.02-.05c-.05-.18-.08-.37-.11-.55-.03-.18-.06-.37-.1-.54,0-.01,0-.04-.01-.08,0-.04-.01-.08-.02-.13,0-.05-.02-.09-.02-.12,0-.04,0-.06,0-.07v-.06s-.03,0-.04,0c0,0-.02,0-.04,0l-.04,.02s-.05,0-.12,0c-.07,0-.11,0-.13,0h-.04c-.05,0-.09,.02-.1,.05-.01,.03-.05,.05-.1,.06-.04,0-.08,.02-.11,.02h-.11l-.23,.02c-.16,.01-.31,.03-.45,.06-.04,.14-.09,.26-.13,.38-.05,.12-.09,.24-.13,.37-.02,.2-.06,.36-.13,.48-.06,.12-.14,.21-.23,.28-.09,.07-.19,.11-.29,.14s-.2,.04-.29,.05c-.03,0-.06,0-.09,0-.03,0-.05,0-.07,0h-.12c-.08,.01-.12,.03-.13,.06,0-.02-.02-.03-.05-.04,0-.03-.02-.04-.04-.04-.03,0-.04,.02-.05,.04-.01-.02-.04-.03-.07-.04-.03,0-.06-.01-.09-.02v-.03s-.03-.08-.05-.13l-.04,.04c0-.14,0-.28,.02-.43,.02-.14,.05-.28,.1-.42l.94-2.99v-.03l.12-.4s.04-.07,.04-.11c0-.04,.01-.08,.02-.11l.2-.59s.05-.07,.05-.11c0-.04,.02-.08,.04-.12,.02-.03,.04-.06,.06-.09,.02-.03,.06-.08,.12-.14,.05-.06,.12-.13,.2-.21,.08-.09,.2-.2,.34-.33,.02-.03,.07-.06,.13-.08,.06-.02,.13-.03,.2-.04,.03,0,.07,0,.12,0,.05,0,.11,0,.16,0,.05,0,.1,.02,.15,.03,.04,.01,.07,.04,.08,.07,.02,0,.03,0,.03,0,0,.01,.02,.02,.06,.02,.18,.03,.32,.12,.43,.26,.03,0,.06,.06,.11,.16,.04,.1,.09,.22,.13,.35,.05,.13,.09,.24,.13,.35,.04,.11,.07,.17,.09,.18v.05s0,.03,.01,.06c0,.03,.01,.04,.02,.04,.01,.09,.04,.17,.08,.25,.04,.08,.08,.17,.12,.25,.04,.08,.08,.17,.12,.25,.04,.08,.06,.16,.06,.25,0,.01,0,.03,.01,.04l.02,.04s.02,.07,.04,.12c.02,.05,.04,.1,.06,.16,.02,.06,.03,.12,.05,.17,.02,.06,.03,.1,.03,.13l.22,.86v.05c0,.09,.03,.19,.05,.29,.03,.1,.05,.19,.07,.28l.06,.55s0,.07,0,.18c0,.11-.03,.23-.08,.37-.05,.14-.13,.29-.24,.43-.11,.14-.28,.25-.49,.33h0Zm-1.57-4.56c-.02,.09-.04,.18-.06,.27-.02,.08-.04,.17-.06,.26-.02,.12-.05,.24-.07,.37-.02,.12-.05,.25-.08,.37-.02,.07-.05,.14-.08,.2-.03,.07-.04,.14-.04,.21,.11,0,.22-.02,.34-.05,.11-.02,.22-.04,.34-.05h.05s.05,0,.1,0c.05,0,.08,0,.09,0,.01,0,.03,0,.04,0,.02,0,.02-.01,.02-.03l-.03-.08c-.02-.06-.04-.12-.07-.19-.02-.07-.05-.15-.08-.22-.03-.08-.05-.14-.07-.19l-.07-.12c-.04-.11-.08-.22-.11-.34-.03-.11-.07-.23-.1-.35,0,0,0-.02-.01-.03,0-.02-.02-.02-.04-.02h0Zm7.94,4.86c-.15-.02-.31-.04-.47-.07-.16-.03-.31-.07-.46-.12-.15-.05-.28-.12-.41-.2-.13-.08-.23-.19-.31-.31-.05-.08-.11-.15-.16-.23-.06-.08-.09-.16-.09-.25h0s0-.02,0-.02c0,0,0,0,0-.01,0-.01-.02-.02-.03-.03-.01,0-.02-.02-.02-.04,0-.01,0-.02,0-.03,0,0,0-.01,0-.03,0,0,0-.02-.01-.04,0-.02-.01-.04-.01-.04,0,0,0-.02,.02-.07,0-.05,0-.11,0-.18,0-.08,.02-.15,.03-.23,.02-.08,.04-.15,.07-.21,.03-.07,.07-.11,.11-.14,0-.01,0-.05,.04-.12,.03-.07,.06-.11,.07-.12,.01-.02,.03-.03,.05-.04,.02,0,.04-.02,.05-.05,.03-.06,.06-.11,.08-.17,.03-.06,.08-.09,.17-.1h.04l.03,.02s0,0,.01,0c0,.03,.02,.07,.06,.12,.04,.04,.09,.09,.14,.13,.05,.04,.11,.08,.16,.12,.06,.04,.1,.07,.14,.1,.04,.06,.08,.12,.13,.18,.05,.05,.07,.12,.08,.19,0,.03,0,.07,0,.1,0,.03,0,.07,0,.11,.04,.05,.08,.1,.13,.16,.05,.05,.11,.09,.19,.1,.02,0,.05,.01,.09,.02,.04,.01,.08,.02,.12,.03,.04,0,.08,.01,.11,.02,.03,0,.05,.01,.06,.01,.02,0,.05,0,.08,0h.1l.17-.02c.13,0,.25-.03,.37-.07,.12-.04,.24-.08,.37-.14l.21-.1v-.02s0-.01,0-.02c0,0,0,0,0-.02,0-.05-.03-.1-.09-.16-.05-.06-.12-.12-.19-.18-.07-.06-.15-.11-.22-.16-.07-.05-.12-.09-.15-.12l-1.67-.95h-.04s-.03-.02-.06-.03c-.03-.02-.07-.04-.1-.06-.04-.02-.08-.05-.12-.07-.04-.02-.07-.05-.09-.06-.22-.13-.39-.29-.52-.49-.13-.19-.2-.41-.22-.64-.01-.15,.01-.33,.06-.52,.05-.19,.12-.39,.2-.58,.08-.19,.17-.37,.26-.54,.09-.17,.17-.3,.24-.4,.05-.07,.1-.13,.17-.19,.06-.06,.13-.11,.19-.16,.2-.15,.39-.27,.58-.37,.19-.1,.41-.16,.66-.18,.17-.01,.34,0,.51,.02,.18,.03,.33,.08,.47,.17,.03,.01,.05,.04,.08,.07,.03,.04,.05,.08,.07,.11,.02,.04,.04,.07,.06,.11,.02,.03,.03,.05,.05,.05,.08,.05,.17,.11,.26,.18,.09,.07,.17,.14,.24,.22,.07,.08,.13,.16,.18,.26,.05,.09,.08,.19,.09,.3,0,.11,.01,.22,0,.35,0,.13-.01,.25-.04,.36-.04,.14-.12,.24-.24,.3-.12,.06-.25,.12-.38,.17l-.05,.02c-.1,.02-.19,.05-.28,.1-.09,.05-.17,.1-.25,.15,0,.03,0,.05-.01,.08,0,.02-.01,.03-.02,.04-.07,0-.13-.03-.17-.1-.04-.07-.06-.14-.06-.2,0,0,0-.01,0-.02,0,0,0-.01,0-.02,0,0,0,0,0-.02,0-.03,0-.07-.02-.11-.01-.04-.02-.08-.02-.11-.02-.1-.03-.2-.04-.3,0-.1-.02-.2-.04-.3v-.16s-.02-.02-.03-.05c-.01-.03-.02-.05-.02-.06-.02-.04-.03-.07-.03-.11,0-.03-.04-.05-.09-.06-.01,0-.04-.01-.09-.02-.05,0-.09-.01-.12-.01-.03,0-.06,.01-.1,.04-.04,.02-.08,.05-.12,.08l-.12,.09s-.07,.05-.1,.06c-.05,.02-.1,.05-.16,.08-.05,.03-.11,.06-.16,.1,0,0-.01,0-.01,0,0,0,0,0-.01,0h-.02c-.15,.08-.23,.19-.22,.35v.11s.02,.07,.04,.12c0,0,.03,.03,.07,.09,.04,.06,.07,.1,.08,.11,.02,.04,.1,.11,.24,.19,.14,.08,.28,.16,.44,.24,.16,.08,.29,.15,.42,.2,.12,.05,.19,.08,.2,.08,.06,.03,.1,.06,.13,.08,.03,.02,.07,.05,.12,.08,.05,.03,.1,.05,.16,.06,.06,.01,.11,.03,.15,.06,0,0,.01,0,.02,.02,0,.01,.02,.02,.02,.03,.04,.04,.09,.08,.14,.1,.05,.02,.1,.06,.16,.1,.01,0,.03,.01,.06,.03,.02,.01,.05,.03,.08,.04,.03,.02,.06,.05,.09,.06l.34,.27c.04,.05,.1,.1,.17,.14,.07,.04,.13,.09,.17,.14,.09,.08,.14,.17,.17,.26,.03,.09,.06,.19,.1,.28,.03,.07,.06,.14,.09,.2,.03,.06,.04,.13,.05,.21,0,.04-.01,.11-.04,.21-.03,.1-.08,.22-.15,.36-.07,.14-.17,.29-.29,.44-.12,.16-.28,.3-.46,.44-.06,.06-.12,.1-.19,.13-.07,.03-.14,.06-.21,.1-.03,.01-.05,.03-.07,.05-.02,.02-.05,.03-.07,.05,0,0,0,.01,0,.01,0,0-.01,0-.02,.01-.05,.02-.1,.05-.15,.09-.05,.03-.1,.06-.15,.09-.05,.03-.09,.05-.13,.05-.04,0-.08,.01-.13,.03-.02,.01-.05,.03-.08,.05-.04,.02-.07,.03-.1,.04-.03,0-.06,.02-.11,.03-.05,.01-.08,.02-.09,.02h-.05s-.11,0-.18,.01c-.07,0-.12,0-.15,0-.01,0-.05,0-.12-.01-.06,0-.11,0-.14,0h0Zm44.77-3.86s-.04-.03-.09-.04c-.04-.02-.08-.03-.12-.04h-.04v-.04s-.05-.06-.07-.07c-.02-.01-.04-.04-.05-.07l-.11-.3s0-.05-.02-.05c-.05-.18-.08-.37-.11-.55-.03-.18-.06-.37-.1-.54,0-.01,0-.04-.01-.08,0-.04-.01-.08-.02-.13,0-.05-.02-.09-.02-.12,0-.04,0-.06-.01-.07v-.06s-.03,0-.04,0c-.01,0-.02,0-.04,0l-.04,.02s-.05,0-.12,0c-.07,0-.11,0-.13,0h-.04c-.05,0-.09,.02-.1,.05-.01,.03-.05,.05-.1,.06-.04,0-.08,.02-.11,.02h-.11l-.23,.02c-.16,.01-.31,.03-.45,.06-.04,.14-.09,.26-.13,.38-.05,.12-.09,.24-.13,.37-.02,.2-.06,.36-.13,.48-.06,.12-.14,.21-.24,.28-.09,.07-.19,.11-.29,.14-.1,.03-.2,.04-.29,.05-.03,0-.06,0-.09,0-.03,0-.05,0-.07,0h-.12c-.08,.01-.12,.03-.13,.06,0-.02-.02-.03-.05-.04,0-.03-.02-.04-.04-.04-.03,0-.04,.02-.05,.04-.01-.02-.04-.03-.07-.04-.03,0-.06-.01-.09-.02v-.03s-.03-.08-.05-.13l-.04,.04c0-.14,0-.28,.02-.43,.02-.14,.05-.28,.1-.42l.94-2.99v-.03l.12-.4s.04-.07,.04-.11c0-.04,.01-.08,.02-.11l.2-.59s.05-.07,.05-.11c0-.04,.02-.08,.04-.12,.02-.03,.04-.06,.06-.09,.02-.03,.06-.08,.12-.14,.05-.06,.12-.13,.2-.21,.08-.09,.2-.2,.34-.33,.02-.03,.07-.06,.13-.08,.06-.02,.13-.03,.2-.04,.03,0,.07,0,.12,0,.05,0,.11,0,.16,0,.05,0,.1,.02,.15,.03,.04,.01,.07,.04,.08,.07,.02,0,.03,0,.03,0,0,.01,.02,.02,.06,.02,.18,.03,.32,.12,.43,.26,.03,0,.06,.06,.11,.16,.04,.1,.09,.22,.13,.35,.05,.13,.09,.24,.13,.35,.04,.11,.07,.17,.09,.18v.05s0,.03,.01,.06c0,.03,.01,.04,.02,.04,.01,.09,.04,.17,.08,.25,.04,.08,.08,.17,.12,.25,.04,.08,.08,.17,.12,.25,.04,.08,.06,.16,.06,.25,0,.01,0,.03,.01,.04l.02,.04s.02,.07,.04,.12c.02,.05,.04,.1,.06,.16,.02,.06,.03,.12,.05,.17,.02,.06,.03,.1,.03,.13l.22,.86v.05c0,.09,.03,.19,.05,.29,.03,.1,.05,.19,.07,.28l.06,.54s0,.07,0,.18c0,.11-.03,.23-.08,.37-.05,.14-.13,.29-.24,.43-.11,.14-.28,.25-.49,.33h0Zm-1.57-4.56c-.02,.09-.04,.18-.06,.27-.02,.08-.04,.17-.06,.26-.02,.12-.05,.24-.07,.37-.02,.13-.05,.25-.08,.37-.02,.07-.05,.14-.08,.2-.03,.07-.04,.14-.04,.21,.11,0,.22-.02,.34-.05,.11-.02,.22-.04,.34-.05h.05s.05,0,.1,0c.05,0,.08,0,.09,0,.01,0,.03,0,.04,0,.02,0,.02-.01,.02-.03l-.03-.08c-.02-.05-.04-.12-.07-.19-.02-.07-.05-.15-.08-.22-.03-.08-.05-.14-.07-.19l-.07-.13c-.04-.11-.08-.22-.11-.34-.03-.11-.07-.23-.1-.35,0,0,0-.02-.01-.03,0-.02-.02-.02-.04-.02h0Z"/><path class="b" d="M99.13,95.29s-.03,.06-.05,.08c-.02,.02-.04,.05-.05,.07-.01,.02-.03,.05-.06,.09l-.09,.12s-.06,.08-.08,.13c-.02,.04-.03,.07-.03,.09,0,.03-.01,.05-.05,.08-.03,.03-.06,.05-.07,.07-.03,.04-.06,.07-.1,.11-.03,.04-.07,.07-.1,.11-.03,.06-.07,.1-.12,.14-.05,.04-.09,.08-.14,.13l-.27,.26c-.05,.03-.08,.05-.09,.05,0,0-.02,0-.03,0l-.03,.03s-.02,.02-.03,.03c0,0-.03,.02-.06,.02-.04,0-.06,.01-.06,.01-.03,.02-.06,.03-.08,.06-.02,.02-.05,.04-.07,.05-.2,.11-.4,.2-.6,.28-.2,.08-.42,.13-.65,.14-.14,0-.28,0-.43-.03-.15-.03-.29-.08-.42-.15-.14-.06-.26-.14-.38-.23-.12-.09-.22-.19-.31-.3-.12-.14-.22-.29-.3-.42-.08-.14-.15-.28-.21-.42-.06-.14-.11-.29-.14-.45-.03-.16-.06-.33-.07-.51l-.02-.24s0-.05,0-.11c0-.06,0-.13,0-.2,0-.07,0-.14,0-.2,0-.06,0-.1,0-.12v-.04s0-.05,0-.1c0-.05,0-.11,0-.16,0-.06,0-.11,0-.16,0-.05,0-.08,0-.09,0-.05,0-.09,.01-.13,0-.04,0-.08,0-.12v-.04l.32-1.63s.02-.06,.04-.13c.02-.07,.03-.11,.05-.13,0,0,0-.02,.03-.05l.04-.05,.08-.19s.02-.02,.05-.05c.02-.02,.04-.04,.05-.06,0,0,0-.04,0-.11,.03-.02,.06-.02,.09-.02,.03,0,.05-.01,.06-.05,.05,.02,.1,.04,.13,.09,.03,.04,.07,.08,.11,.12,.02,.03,.07,.07,.15,.14l.16,.14s.04,.08,.07,.11c.03,.02,.05,.06,.08,.09,.02,.04,.04,.08,.05,.12,.01,.04,.03,.08,.04,.12,.02,.05,.04,.09,.06,.13,.02,.04,.04,.08,.06,.13v.17c.02,.12,0,.23-.02,.34-.03,.11-.06,.22-.08,.34-.03,.12-.04,.22-.05,.32,0,.1-.02,.21-.03,.32,0,.09-.01,.17-.02,.24,0,.06,0,.14,0,.23v.04s0,.05,.01,.07l.02,.08s0,.04,0,.05c0,.02,0,.04,0,.07,0,.03-.01,.05-.03,.07,0,.05,0,.1,0,.15v.15s.02,.08,.02,.11c0,.03,0,.07,.01,.11,0,.02,0,.04-.01,.05,0,.01-.01,.03-.01,.05,0,.05,.01,.08,.02,.09,.01,.01,.02,.04,.04,.08,0,.02,.01,.04,0,.07,0,.03,0,.05,.02,.07,0,.03,.03,.06,.06,.1,.03,.04,.07,.08,.1,.11,.04,.04,.07,.07,.11,.1,.04,.03,.07,.05,.1,.06,.03,.02,.05,.03,.06,.03,.01,0,.03,.01,.04,.04,.02,0,.07,.02,.14,.03s.13,.03,.15,.03c0,.01,.01,.02,.03,.02,.01,0,.04,.01,.08,.02l.06,.02s.04,0,.07-.01c.04,0,.06-.01,.07-.02,.12-.01,.22-.04,.3-.09,.08-.04,.18-.08,.28-.12,.03-.02,.07-.04,.12-.07,.05-.03,.09-.06,.12-.07l.34-.36c.09-.09,.16-.18,.21-.26,.05-.08,.08-.19,.07-.32,0-.03,0-.13,0-.28-.01-.16-.03-.43-.05-.81-.02-.22-.05-.43-.11-.64-.06-.21-.14-.41-.23-.6l-.2-.43s-.05-.08-.09-.12c-.04-.04-.06-.09-.08-.14,0-.03,0-.05,0-.08,0-.03,0-.06,.01-.1,0-.01,0-.03,0-.06,0-.03,0-.05,0-.06,0-.07,.02-.13,.07-.16,.05-.04,.09-.07,.1-.11,0,0,0-.02,0-.05,0-.03,0-.04,.01-.05,0-.01,.01-.03,.02-.05,0-.02,.02-.03,.03-.05,.02-.03,.03-.08,.05-.15,.02-.06,.04-.11,.06-.15,0-.01,0-.02,.02-.02,.01,0,.02,0,.03-.02h.08c.21-.02,.38,.02,.54,.13,.15,.1,.28,.24,.38,.4,.01,.02,.03,.04,.05,.05,.02,.02,.03,.04,.04,.08,0,.02,.02,.03,.04,.04,.02,.04,.05,.1,.09,.18,.04,.08,.08,.17,.12,.26,.04,.09,.09,.17,.13,.25,.05,.07,.08,.12,.12,.13l.12,.3,.13,.61v.15s.02,.02,.02,.03c0,.02,.01,.03,.01,.04,0,.02,0,.04-.02,.05l.05,1.11s0,.03,0,.07c0,.04-.01,.06-.01,.07,0,.01,0,.04,0,.08,0,.04,0,.08-.01,.13,0,.04-.01,.08-.02,.11-.01,.03-.02,.05-.04,.05l-.43,.67h0Zm3.22-6.31c.27-.01,.51,0,.73,.06,.21,.05,.4,.11,.55,.18,.15,.07,.27,.14,.35,.2,.08,.06,.13,.11,.14,.12,.12,.13,.22,.27,.31,.41,.09,.14,.15,.3,.16,.48,0,.03,0,.07,0,.1,0,.03,0,.07,0,.1,0,.01,0,.03,0,.05,0,.02,0,.04-.02,.05l.02,.05c0,.07,0,.16-.04,.26-.03,.1-.07,.18-.11,.23-.01,.02-.03,.04-.04,.05-.02,.01-.03,.02-.04,.04-.02,.03-.03,.05-.03,.07,0,.02-.01,.05-.02,.08v.04c-.03,.26-.09,.49-.18,.7-.09,.21-.18,.4-.29,.57-.11,.17-.23,.33-.35,.47-.12,.14-.24,.27-.35,.37,.06,.04,.11,.08,.16,.11,.03,.02,.06,.05,.1,.07,.02,.01,.04,.02,.05,.04,.04,.04,.1,.09,.18,.15,.08,.05,.15,.09,.2,.12l.86,.7s.08,.04,.1,.07c.03,.03,.06,.06,.1,.09,.08,.06,.15,.12,.22,.17,.07,.05,.14,.1,.22,.16l.04,.03,.04,.11s.1,.09,.15,.13c.05,.05,.1,.1,.14,.16,0,.03,0,.05-.01,.07,0,.02-.01,.03-.01,.05,0,.04,.02,.07,.05,.08,.03,.01,.04,.04,.05,.07-.03,0-.07-.02-.1-.06-.03-.04-.07-.06-.1-.06-.01,0-.02,.02-.03,.05,0,.03-.01,.05-.01,.06-.01,.02-.03,.04-.06,.05-.03,.02-.04,.04-.04,.07h-.12s-.05,.04-.05,.11c0,.06-.01,.1-.05,.1-.01,0-.03,0-.04,0-.01,0-.03,0-.04,0-.03,0-.05,0-.07,.01-.02,0-.04,.01-.07,.01-.05,0-.11,0-.16-.04-.05-.03-.1-.06-.13-.08h-.04s-.06,.03-.05,.08c0,.03,.02,.05,.06,.07,.04,.01,.06,.03,.06,.07-.11,0-.21,0-.3-.04-.09-.04-.17-.09-.25-.15-.08-.06-.15-.12-.23-.19-.07-.06-.15-.12-.24-.18-.03-.02-.05-.05-.06-.08,0-.03-.03-.04-.08-.04l-.32-.28s-.06-.03-.1-.07c-.04-.03-.08-.06-.11-.09l-.79-.58s-.09-.06-.11-.08c-.02-.02-.06-.03-.12-.03,0,.08,.02,.15,.04,.22,.02,.07,.04,.14,.07,.22,.08,.24,.14,.49,.2,.75,.02,.04,.04,.08,.06,.12,.02,.04,.04,.09,.04,.14,0,.03,0,.05-.02,.08-.01,.03-.02,.05-.02,.08,0,0,0,.01,.01,.01,0,0,.01,.01,.01,.02-.03,0-.05,0-.06-.03,0-.02-.02-.04-.03-.06-.01-.01-.03-.03-.05-.06-.02-.03-.03-.05-.04-.07,0-.02-.02-.03-.04-.03-.03,0-.05,.01-.05,.04,0,.02,0,.04-.02,.06-.02,.02-.04,.04-.05,.04-.02,0-.03,.02-.05,.03-.02,.01-.04,.03-.05,.05-.02,.02-.03,.05-.04,.1,0,0,0,.02,0,.05,0,.03,0,.05,0,.06,0,.02,0,.03,0,.03,0,0-.01,0-.02,0,0,0-.01,0-.03,0v.12h-.08v.2c-.01-.08-.03-.12-.03-.13v-.02s-.06,.04-.07,.1c-.01,.07-.02,.11-.02,.12-.01,0-.03,0-.04-.02-.01-.01-.02-.02-.04-.02-.03,0-.04,.02-.04,.05,0,.03,0,.05-.02,.05-.02,0-.04,0-.05-.03-.01-.02-.03-.03-.06-.03,0,0-.01,0-.02,.02,0,.01,0,.03,0,.04l.06,.13s-.05-.04-.09-.13c-.04-.09-.09-.19-.14-.3-.05-.11-.09-.22-.13-.32-.04-.1-.07-.17-.07-.2,0-.03-.02-.07-.04-.12-.02-.06-.04-.12-.06-.18-.02-.06-.05-.13-.07-.19-.02-.06-.04-.1-.04-.13,0-.01,0-.05-.03-.1-.02-.06-.03-.09-.04-.1,.01-.01,.02-.04,.01-.09-.03-.13-.06-.26-.09-.39-.03-.13-.05-.26-.08-.39,0-.01,0-.05-.02-.12-.01-.07-.02-.12-.03-.15-.05-.27-.09-.53-.13-.78-.04-.25-.08-.51-.11-.78-.02-.14-.05-.27-.08-.41-.03-.13-.05-.27-.06-.41,0-.09,0-.19,0-.28,0-.09,0-.19,0-.28,0-.01-.01-.03-.03-.05-.02-.02-.03-.03-.03-.05,0-.01,0-.04,.02-.07,.01-.03,.02-.05,.04-.05l-.02-.25c0-.08,0-.14,.02-.18h0s.01-.01,.02-.02c.03-.04,.04-.06,.04-.06,0,0,0-.03,0-.07,0-.02,.02-.05,.06-.1,.03-.05,.07-.09,.1-.14,.04-.05,.07-.09,.1-.13,.03-.04,.05-.06,.07-.05h.02s0-.02,0-.02c.01,0,.02-.02,.03-.03,0-.01,.02-.03,.03-.04l.04-.04v-.04s.05-.01,.07-.04c.02-.02,.04-.04,.06-.04,.07-.08,.15-.15,.23-.22,.08-.07,.17-.13,.26-.18,0,.01,0,.02,0,.03,0,0,0,.01,0,.03h.04l.11-.05,.03-.04s.03-.03,.03-.03c.03-.02,.07-.04,.13-.07,.06-.02,.1-.05,.09-.09-.05,0-.12,.03-.19,.09-.08,.06-.14,.08-.19,.09,.01-.01,.03-.03,.06-.05,.03-.02,.05-.03,.05-.04l.36-.16c.06-.02,.11-.04,.15-.06,.04-.01,.1-.03,.17-.05,0,.01,.01,.02,.04,.02,.02,0,.04,0,.05-.02h.12Zm-.45,3.85s.01,.02,.03,.02c.05,0,.1-.03,.17-.08,.07-.05,.14-.11,.22-.18,.07-.07,.14-.14,.21-.2,.06-.07,.11-.12,.13-.15,.02-.02,.03-.04,.04-.07,0-.02,.02-.05,.03-.08l.03-.04c.05-.08,.11-.16,.17-.26,.06-.09,.1-.18,.12-.27,.04-.08,.07-.16,.09-.23,.02-.07,.03-.15,.02-.24,0-.02,0-.05-.02-.08,0-.04-.02-.06-.03-.07l-.26-.35s-.03-.02-.05-.04c-.04-.02-.06-.04-.06-.06-.06-.1-.17-.17-.33-.21-.16-.04-.33-.05-.5-.04-.19,.01-.35,.05-.49,.12-.14,.07-.2,.16-.2,.28,0,.01,0,.02,0,.03,0,0,0,.02,0,.03l.64,2.11s.02,.04,.04,.07h0Zm.49-3.69c.1,0,.22,0,.36,.03,.14,.03,.26,.05,.35,.08,.03,.01,.05,.02,.05,.03,0,0,.02,0,.05,0,0-.01-.02-.03-.06-.06-.04-.02-.09-.05-.14-.07-.05-.02-.1-.04-.15-.05-.05-.02-.08-.03-.1-.03-.03-.01-.07-.01-.11,0-.04,0-.07,0-.11,0l-.4,.03s-.03,0-.08,.02c-.05,.01-.08,.02-.11,.03-.05,.02-.09,.04-.14,.06-.05,.03-.09,.06-.12,.1h.03s.06,0,.08-.01c.02-.01,.05-.02,.07-.04,.05-.02,.09-.03,.13-.03,.04,0,.09-.01,.14-.03,.05-.02,.09-.04,.11-.04,.02,0,.06,0,.12-.01h0Zm-1.08,.37s-.02,.02-.02,.03v.03s.04,0,.05-.01l-.03-.05h0Zm8.86,6.57s-.04-.03-.09-.04c-.04-.02-.08-.03-.12-.04h-.04v-.04s-.05-.06-.07-.07c-.02-.01-.04-.04-.05-.07l-.11-.3s0-.05-.02-.05c-.05-.18-.08-.37-.11-.55-.03-.18-.06-.37-.1-.54,0-.01,0-.04-.01-.08,0-.04-.01-.08-.02-.13,0-.05-.02-.09-.02-.12,0-.04,0-.06,0-.07v-.06s-.03,0-.04,0c-.01,0-.02,0-.04,0l-.04,.02s-.05,0-.12,0c-.07,0-.11,0-.13,0h-.04c-.05,0-.09,.02-.1,.05s-.05,.05-.1,.06c-.04,0-.08,.02-.11,.02h-.11l-.23,.02c-.16,.01-.31,.03-.44,.06-.04,.14-.09,.26-.13,.38-.05,.12-.09,.24-.13,.37-.02,.2-.06,.36-.13,.48-.06,.12-.14,.21-.24,.28-.09,.07-.19,.11-.29,.14-.1,.03-.2,.04-.29,.05-.03,0-.06,0-.09,0-.03,0-.05,0-.07,0h-.12c-.08,.01-.12,.03-.13,.06,0-.02-.02-.03-.05-.04,0-.03-.02-.04-.04-.04-.03,0-.04,.02-.05,.04-.01-.02-.04-.03-.07-.04-.03,0-.06-.01-.09-.02v-.03s-.03-.08-.05-.13l-.04,.04c0-.14,0-.28,.02-.43,.02-.14,.05-.28,.1-.42l.94-2.99v-.03l.12-.4s.04-.07,.04-.11c0-.04,.01-.08,.02-.11l.2-.59s.05-.07,.05-.11c0-.04,.02-.08,.04-.12,.02-.03,.04-.06,.06-.09,.02-.03,.06-.08,.12-.14,.05-.06,.12-.13,.2-.21,.08-.09,.2-.2,.34-.33,.02-.03,.07-.06,.13-.08,.06-.02,.13-.03,.2-.04,.03,0,.07,0,.12,0,.05,0,.11,0,.16,0,.05,0,.1,.02,.15,.03,.04,.01,.07,.04,.08,.07,.02,0,.03,0,.03,0,0,.01,.02,.02,.06,.02,.18,.03,.32,.12,.43,.26,.03,0,.06,.06,.11,.16,.04,.1,.09,.22,.13,.35,.05,.13,.09,.24,.13,.35,.04,.11,.07,.17,.09,.18v.05s0,.03,.01,.06c0,.03,.01,.04,.02,.04,.01,.09,.04,.17,.08,.25,.04,.08,.08,.17,.12,.25,.04,.08,.08,.17,.12,.25,.04,.08,.06,.16,.06,.25,0,.01,0,.03,.01,.04l.02,.04s.02,.07,.04,.12c.02,.05,.04,.1,.06,.16,.02,.06,.03,.12,.05,.17,.02,.06,.03,.1,.03,.13l.22,.86v.05c0,.09,.03,.19,.05,.29,.03,.1,.05,.19,.07,.28l.06,.54s0,.07,0,.18c0,.11-.03,.23-.08,.38-.05,.14-.13,.29-.24,.43-.11,.14-.28,.25-.49,.33h0Zm-1.57-4.56c-.02,.09-.04,.18-.06,.27-.02,.08-.04,.17-.06,.26-.02,.12-.05,.24-.07,.37-.02,.12-.05,.25-.08,.37-.02,.07-.05,.14-.08,.2-.03,.07-.04,.14-.04,.21,.11,0,.22-.02,.34-.05,.11-.02,.22-.04,.34-.05h.05s.05,0,.1,0c.05,0,.08,0,.09,0,.01,0,.03,0,.04,0,.02,0,.02-.01,.02-.03l-.03-.08c-.02-.06-.04-.12-.07-.19-.02-.07-.05-.15-.08-.22-.03-.08-.05-.14-.07-.19l-.07-.12c-.04-.11-.08-.22-.11-.34-.03-.11-.07-.23-.1-.35,0,0,0-.02-.01-.03,0-.02-.02-.02-.04-.02h0Z"/><path class="b" d="M111.82,95.29c0-.05-.02-.11-.04-.18-.02-.07-.04-.12-.06-.16,0-.01-.02-.05-.03-.1-.01-.06-.02-.09-.02-.1l-.04-.61c0-.05,0-.1-.01-.15,0-.05,0-.09,0-.14,0-.07,.03-.15,.05-.23,.03-.08,.04-.16,.03-.23v-.04s.04-.04,.06-.1c.02-.06,.04-.1,.05-.12,.01,0,.03,0,.04,0,.03,0,.06-.02,.07-.05,.01-.03,.02-.06,.02-.1,0-.02,0-.04-.02-.06-.01-.02-.02-.04-.02-.06,0-.01,0-.03,0-.04,0-.03,0-.05,0-.06,0-.01,0-.02-.02-.03,.05-.02,.07-.04,.07-.06,0-.02,.02-.04,.08-.04,.08,0,.16,.03,.25,.12,.09,.08,.16,.16,.21,.22l.02,.03,.12,.12s.04,.03,.08,.06c.04,.04,.07,.06,.07,.06,.01,.01,.03,.04,.04,.08,.01,.04,.04,.07,.07,.09,.02,.05,.03,.09,.03,.12,0,.03,.01,.07,.01,.12,0,.05,0,.09,0,.13,0,.04,0,.08,0,.13,0,.06,.01,.12,.02,.19,0,.07,.02,.13,.03,.19,0,.05,.02,.1,.06,.16,.03,.06,.06,.11,.08,.15,.02,.07,.05,.14,.07,.22,.02,.07,.05,.14,.1,.2,.02,.03,.04,.04,.07,.05,.02,0,.05,.02,.07,.04,.01,0,.04,.03,.07,.06,.04,.03,.06,.05,.06,.06,.01,.01,.04,.02,.08,.02,.04,0,.08,0,.12,.01h.16c.07,0,.13-.04,.21-.13,.07-.08,.14-.18,.19-.29,.06-.11,.11-.22,.15-.34,.04-.11,.07-.2,.08-.26v-.07c0-.17,0-.35,0-.52,0-.18,0-.35-.02-.52-.02-.25-.05-.49-.11-.73-.05-.24-.12-.48-.21-.73l-.09-.27s-.03-.1-.06-.2c-.03-.1-.07-.2-.11-.31-.04-.11-.09-.2-.13-.29-.04-.08-.08-.12-.12-.12-.09,0-.16,.03-.23,.07-.06,.04-.13,.07-.2,.08-.09,.02-.18,.04-.28,.05-.09,.01-.18,.03-.28,.05-.1,.03-.19,.05-.29,.09-.09,.03-.19,.05-.28,.07-.16,.03-.33,.05-.51,.07-.19,.02-.44,.04-.75,.08-.03-.02-.05-.05-.06-.09,0-.04-.04-.06-.08-.05,0-.01,0-.03,0-.05,0-.02,0-.04,0-.06,0-.07-.02-.13-.05-.18-.03-.05-.05-.11-.05-.16,0-.04,.02-.1,.06-.17s.08-.13,.09-.16c.01-.03,.02-.07,.03-.11,0-.04,.02-.07,.05-.09,.07-.06,.16-.13,.27-.2,.11-.07,.21-.11,.31-.13l.34-.07c.07-.01,.16-.03,.28-.05,.12-.02,.19-.04,.22-.07l.52-.15c.08-.03,.16-.05,.24-.09,.08-.03,.16-.06,.24-.1h0s0,0,0,0c0,0,0,0,0,0l.34-.1c.05,0,.1-.01,.15-.02,.05-.01,.1-.02,.14-.02h.14c.07,0,.13,.03,.17,.1,.04,.06,.09,.11,.14,.14,.04,.02,.09,.05,.15,.07,.06,.02,.11,.04,.16,.05,.07,.04,.14,.09,.2,.13,.06,.05,.12,.1,.17,.15,.04,.04,.08,.11,.12,.2,.05,.09,.08,.16,.09,.21,.02,.03,.02,.06,.02,.1,0,.03,.02,.06,.06,.08,.01,.07,.02,.13,.02,.2,0,.07,.02,.13,.03,.2,.02,.09,.05,.16,.09,.23,.04,.07,.07,.14,.07,.23v.06l.16,.6s0,.03,0,.04c0,0,.01,.03,.02,.05,.02,.12,.04,.24,.06,.37,.02,.13,.03,.25,.04,.37,.02,.22,.02,.44,.02,.66,0,.22-.02,.44-.05,.66,0,.01,0,.03,0,.06,0,.03,0,.05,0,.06,0,.19-.04,.4-.12,.62-.08,.22-.18,.44-.31,.67-.13,.22-.28,.43-.46,.63-.18,.2-.37,.37-.58,.51-.02,.01-.06,.04-.12,.08s-.1,.06-.12,.07c-.06,.02-.12,.04-.19,.04-.07,0-.13,.02-.19,.03-.07,.02-.12,.05-.15,.09-.03,.04-.08,.06-.17,.06h-.09s-.04,0-.06,0c-.02,0-.04,0-.06-.01-.08-.03-.15-.06-.21-.09-.07-.03-.13-.07-.19-.12-.04-.03-.07-.06-.11-.09-.04-.03-.08-.06-.11-.08,0,0,0,0-.01,0-.01,0-.02,0-.02,0-.01,0-.02,0-.03,0-.13-.08-.23-.15-.31-.22-.08-.07-.16-.14-.21-.22-.06-.08-.1-.16-.14-.26-.04-.1-.08-.21-.11-.34h0Zm6.23,.13c-.05,0-.11-.02-.16-.06-.05-.04-.1-.08-.13-.11-.1-.07-.2-.15-.29-.24-.1-.09-.18-.19-.25-.29-.17-.25-.32-.5-.44-.75-.12-.25-.19-.54-.21-.86-.02-.31,0-.6,.08-.87,.07-.28,.18-.55,.31-.82,.06-.14,.13-.28,.19-.43,.06-.15,.14-.28,.24-.4,0-.01,.02-.04,.05-.07,.03-.03,.06-.07,.09-.1,.03-.04,.07-.07,.09-.1l.06-.07,.21-.18s.04-.03,.07-.03c.07-.04,.14-.08,.21-.14,.07-.06,.14-.11,.2-.17l.15-.14,.02-.03s.02-.02,.02-.02l.04,.02s.05-.01,.06-.03c0-.02,.02-.03,.04-.05,.08-.05,.16-.1,.25-.13,.09-.04,.17-.08,.25-.13,.02,0,.05-.02,.09-.04,.04-.02,.09-.04,.14-.06,.05-.02,.09-.04,.14-.05,.04-.02,.07-.03,.09-.04,.07,0,.15-.02,.22-.04,.08-.02,.15-.04,.23-.06,.01,0,.04,0,.09,0s.1,0,.15,0c.05,0,.1,0,.15,0h.14s.05-.02,.06-.03c.01-.01,.03-.02,.06-.02,.06,0,.13,.01,.22,.04,.09,.03,.16,.06,.2,.08,.16,.06,.32,.15,.49,.28,.17,.12,.31,.25,.4,.39,.07,.1,.14,.22,.2,.35,.07,.13,.13,.27,.19,.41,.06,.14,.12,.28,.17,.43,.05,.14,.1,.27,.13,.39,0,0,.01,.03,.02,.06,0,.04,0,.06,.01,.07,0,.03,.02,.07,.03,.12,.01,.05,.02,.09,.02,.13,.01,.15,0,.29,0,.42-.01,.13-.02,.27-.03,.41,0,.09,0,.18,0,.27,0,.08,0,.17-.03,.27-.01,.08-.05,.19-.11,.33-.06,.14-.14,.27-.24,.39,0,0-.02,.02-.04,.05-.02,.03-.04,.06-.07,.1-.02,.04-.05,.07-.07,.1-.02,.03-.03,.05-.04,.06-.06,.08-.13,.13-.2,.14-.07,.01-.14,.05-.21,.1-.09,.08-.18,.16-.26,.25-.09,.09-.18,.17-.27,.25-.06,.04-.12,.09-.18,.12-.06,.04-.12,.08-.18,.12-.05,.04-.1,.09-.14,.14-.04,.05-.1,.09-.16,.12-.03,.02-.04,.03-.05,.04,0,.01-.01,.03-.03,.04-.06,.04-.12,.08-.19,.1-.07,.02-.13,.05-.2,.08-.15,.08-.31,.15-.48,.21-.17,.06-.34,.09-.52,.1-.17,.01-.34,0-.51-.05-.17-.04-.33-.13-.47-.26-.02-.01-.05-.03-.08-.04-.03-.01-.05-.04-.05-.07h0Zm-.07-2.81s.04,.11,.1,.28c.06,.18,.17,.37,.32,.58,.15,.21,.37,.4,.64,.57,.27,.17,.64,.26,1.09,.27,0,.01,0,.02,.02,.02,.01,0,.03,0,.04,.01l.32-.12s.02-.01,.04-.02c.02,0,.04,0,.05,0,.09-.1,.16-.2,.22-.3,.06-.1,.12-.21,.18-.33,.03-.06,.06-.11,.09-.17,.03-.06,.06-.11,.08-.17,.08-.22,.13-.45,.17-.68,.03-.24,.04-.47,.03-.7,0-.08-.02-.17-.04-.27-.02-.1-.05-.27-.08-.51v-.03c0-.05-.03-.13-.09-.24-.05-.11-.14-.21-.25-.31-.11-.1-.25-.19-.41-.26-.16-.07-.35-.1-.57-.09-.13,0-.25,.02-.37,.04-.12,.02-.25,.05-.38,.08l-.47,.22c-.07,.03-.13,.07-.17,.13-.04,.05-.08,.11-.11,.17-.02,.03-.03,.07-.04,.11,0,.04-.02,.08-.04,.11-.12,.26-.22,.52-.3,.78-.08,.26-.1,.53-.08,.82h0Zm9.44,2.27s-.04-.03-.09-.04c-.04-.02-.08-.03-.12-.04h-.04v-.04s-.05-.06-.07-.07c-.02-.01-.04-.04-.05-.07l-.11-.3s0-.05-.02-.05c-.05-.18-.08-.37-.11-.55-.03-.18-.06-.37-.1-.54,0-.01,0-.04-.01-.08,0-.04-.01-.08-.02-.13,0-.05-.02-.09-.02-.12,0-.04,0-.06,0-.07v-.06s-.03,0-.04,0c-.01,0-.02,0-.04,0l-.04,.02s-.05,0-.12,0c-.07,0-.11,0-.13,0h-.04c-.05,0-.09,.02-.1,.05-.01,.03-.05,.05-.1,.06-.04,0-.08,.02-.11,.02h-.11l-.23,.02c-.16,.01-.31,.03-.45,.06-.04,.14-.09,.26-.13,.38-.05,.12-.09,.24-.13,.37-.02,.2-.06,.36-.13,.48-.06,.12-.14,.21-.23,.28-.09,.07-.19,.11-.29,.14-.1,.03-.2,.04-.29,.05-.03,0-.06,0-.09,0-.03,0-.05,0-.07,0h-.12c-.08,.01-.12,.03-.13,.06,0-.02-.02-.03-.05-.04,0-.03-.02-.04-.04-.04-.03,0-.04,.02-.05,.04-.01-.02-.04-.03-.07-.04-.03,0-.06-.01-.09-.02v-.03s-.03-.08-.05-.13l-.04,.04c0-.14,0-.28,.02-.43,.02-.14,.05-.28,.1-.42l.94-2.99v-.03l.12-.4s.04-.07,.04-.11c0-.04,.01-.08,.02-.11l.2-.59s.05-.07,.05-.11c0-.04,.02-.08,.04-.12,.02-.03,.04-.06,.06-.09,.02-.03,.06-.08,.12-.14,.05-.06,.12-.13,.2-.21,.08-.09,.2-.2,.34-.33,.02-.03,.07-.06,.13-.08,.06-.02,.13-.03,.2-.04,.03,0,.07,0,.12,0,.05,0,.11,0,.16,0,.05,0,.1,.02,.15,.03,.04,.01,.07,.04,.08,.07,.02,0,.03,0,.03,0,0,.01,.02,.02,.06,.02,.18,.03,.32,.12,.43,.26,.03,0,.06,.06,.11,.16,.04,.1,.09,.22,.13,.35,.05,.13,.09,.24,.13,.35,.04,.11,.07,.17,.09,.18v.05s0,.03,.01,.06c0,.03,.01,.04,.02,.04,.01,.09,.04,.17,.08,.25,.04,.08,.08,.17,.12,.25,.04,.08,.08,.17,.12,.25,.04,.08,.06,.16,.06,.25,0,.01,0,.03,.01,.04l.02,.04s.02,.07,.04,.12c.02,.05,.04,.1,.06,.16,.02,.06,.03,.12,.05,.17,.02,.06,.03,.1,.03,.13l.22,.86v.05c0,.09,.03,.19,.05,.29,.03,.1,.05,.19,.07,.28l.06,.54s0,.07,0,.18c0,.11-.03,.23-.08,.38-.05,.14-.13,.29-.24,.43-.11,.14-.28,.25-.49,.33h0Zm-1.57-4.56c-.02,.09-.04,.18-.06,.27-.02,.08-.04,.17-.06,.26-.02,.12-.05,.24-.07,.37-.02,.13-.05,.25-.08,.37-.02,.07-.05,.14-.08,.2-.03,.07-.04,.14-.04,.21,.11,0,.23-.02,.34-.05,.11-.02,.22-.04,.34-.05h.05s.05,0,.1,0c.05,0,.08,0,.09,0,.01,0,.03,0,.04,0,.02,0,.02-.01,.02-.03,0,0,0-.03-.03-.08-.02-.06-.04-.12-.07-.19-.02-.07-.05-.15-.08-.22-.03-.08-.05-.14-.07-.19l-.07-.12c-.04-.11-.08-.22-.11-.34-.03-.11-.07-.23-.1-.35,0,0,0-.02-.01-.03,0-.02-.02-.02-.04-.02h0Zm4.96,5.07c-.15-.02-.31-.04-.47-.07-.16-.03-.31-.07-.46-.12-.15-.05-.28-.11-.41-.2-.13-.08-.23-.19-.31-.31-.05-.08-.11-.15-.16-.23-.06-.08-.09-.16-.09-.25h0s0-.02,0-.02c0,0,0,0,0-.01,0-.01-.02-.02-.03-.03-.01,0-.02-.02-.02-.04,0-.01,0-.02,0-.03,0,0,0-.01,0-.03,0,0,0-.02-.01-.04s-.01-.04-.01-.04c0,0,0-.02,.01-.07,0-.05,0-.11,0-.18,0-.08,.02-.15,.03-.23,.02-.08,.04-.15,.07-.21,.03-.07,.07-.11,.11-.14,0-.01,0-.05,.04-.12,.03-.07,.06-.11,.07-.12,.01-.02,.03-.03,.05-.04,.02,0,.04-.02,.05-.05,.03-.06,.06-.11,.08-.17,.03-.06,.08-.09,.17-.1h.04l.03,.03s0,0,.01,0c0,.03,.02,.07,.06,.12,.04,.04,.09,.09,.14,.13,.05,.04,.11,.08,.16,.12,.06,.04,.1,.07,.14,.1,.04,.06,.08,.12,.13,.18,.05,.05,.07,.12,.08,.19,0,.03,0,.07,0,.1,0,.03,0,.07,0,.11,.04,.05,.08,.1,.13,.16,.05,.05,.11,.09,.19,.1,.02,0,.05,.01,.09,.02,.04,.01,.08,.02,.12,.03,.04,0,.08,.01,.11,.02,.03,0,.05,.01,.06,.01,.02,0,.05,0,.08,0h.1l.17-.02c.13,0,.25-.03,.37-.07,.12-.04,.24-.08,.37-.14l.21-.1v-.02s0-.01,0-.02c0,0,0,0,0-.02,0-.05-.03-.1-.09-.16-.05-.06-.12-.12-.19-.18-.07-.06-.15-.11-.22-.16-.07-.05-.12-.09-.15-.12l-1.67-.95h-.04s-.03-.02-.06-.03c-.03-.02-.07-.04-.1-.06-.04-.02-.08-.05-.12-.07-.04-.02-.07-.04-.09-.06-.22-.13-.39-.29-.52-.49-.13-.19-.2-.41-.22-.64-.01-.15,.01-.33,.06-.52,.05-.19,.12-.39,.2-.58,.08-.19,.17-.37,.26-.54,.09-.17,.17-.3,.24-.4,.05-.07,.1-.13,.17-.19,.06-.06,.13-.11,.19-.16,.2-.15,.39-.27,.58-.37,.19-.1,.41-.16,.66-.18,.17-.01,.34,0,.51,.02,.17,.03,.33,.08,.47,.17,.03,.01,.05,.04,.08,.07,.03,.04,.05,.08,.07,.11l.06,.11s.03,.05,.05,.05c.08,.05,.17,.11,.26,.18,.09,.07,.17,.14,.24,.22,.07,.08,.13,.16,.18,.26,.05,.09,.08,.19,.09,.3s.01,.22,0,.35c0,.13-.01,.25-.04,.36-.04,.14-.12,.24-.24,.3-.12,.07-.25,.12-.38,.17l-.05,.02c-.1,.02-.19,.05-.28,.1-.09,.05-.17,.1-.25,.15,0,.03,0,.05-.01,.08,0,.02-.01,.03-.02,.04-.07,0-.13-.03-.17-.1-.04-.07-.06-.14-.06-.2,0,0,0-.01,0-.02,0,0,0-.01,0-.02,0,0,0,0,0-.02,0-.03,0-.07-.02-.11-.01-.04-.02-.08-.02-.11-.02-.1-.03-.2-.04-.3,0-.1-.02-.2-.04-.3v-.16s-.02-.02-.03-.05c-.01-.03-.02-.05-.02-.06-.02-.04-.03-.07-.03-.11,0-.03-.04-.05-.09-.06-.01,0-.04-.01-.09-.02-.05-.01-.09-.01-.12-.01-.03,0-.06,.01-.1,.04-.04,.02-.08,.05-.12,.08-.04,.03-.08,.06-.12,.09-.04,.03-.07,.05-.1,.06-.05,.02-.1,.05-.16,.08-.05,.03-.11,.06-.16,.1,0,0-.01,0-.01,0,0,0,0,0-.01,0h-.02c-.15,.08-.23,.19-.22,.35v.11s.02,.07,.04,.12c0,0,.03,.03,.07,.09,.04,.06,.07,.1,.08,.11,.02,.05,.1,.11,.24,.19,.14,.08,.28,.16,.44,.24,.16,.08,.29,.15,.42,.2,.12,.05,.19,.08,.2,.08,.06,.03,.1,.06,.13,.08,.03,.02,.07,.05,.12,.08,.05,.03,.1,.05,.16,.06,.06,.01,.11,.03,.15,.06,0,0,.01,0,.02,.02,0,.01,.02,.02,.02,.03,.04,.04,.09,.08,.14,.1,.05,.02,.1,.06,.16,.1,.01,0,.03,.01,.06,.03,.02,.01,.05,.03,.08,.04,.03,.02,.06,.05,.09,.06l.34,.27c.04,.05,.1,.1,.17,.14,.07,.04,.13,.09,.17,.14,.09,.08,.14,.17,.17,.26,.03,.09,.06,.19,.1,.28,.03,.07,.06,.14,.09,.2,.03,.06,.04,.13,.05,.21,0,.04-.01,.11-.04,.21-.03,.1-.08,.22-.15,.36-.07,.14-.17,.28-.29,.44-.12,.16-.28,.3-.46,.44-.06,.06-.12,.1-.19,.13-.07,.03-.14,.06-.21,.1-.03,.01-.05,.03-.07,.05-.02,.02-.05,.03-.07,.05,0,0,0,.01,0,.01,0,0-.01,0-.02,.01-.05,.02-.1,.05-.15,.09-.05,.03-.1,.06-.15,.09-.05,.03-.09,.05-.13,.05-.04,0-.08,.01-.13,.03-.02,.01-.05,.03-.08,.05-.04,.02-.07,.03-.1,.04-.03,0-.06,.02-.11,.03-.05,.01-.08,.02-.09,.02h-.05s-.11,0-.18,.01c-.07,0-.12,0-.15,0-.01,0-.05,0-.12-.01-.06,0-.11,0-.13,0h0Z"/><path class="b" d="M148.94,92.61c0-.07,0-.13,0-.19,0-.06,0-.12,0-.18l-.26-3.62v-.04s0-.02,0-.03c0-.01,0-.02,0-.03h0s0-.03,0-.04c0-.01,0-.03,0-.04,0-.16,0-.32,0-.47,0-.16,.01-.32,.04-.48,0-.05,.02-.07,.04-.07h.04s.02-.01,.03-.02c0-.01,0-.04,0-.08,0-.04,0-.08,.01-.12,0-.04,.01-.08,.02-.11,0-.03,.02-.05,.04-.05,.03,0,.06,0,.09,.03,.03,.02,.06,.04,.09,.03,.07,0,.1-.03,.09-.08,0-.02-.02-.03-.04-.04,0,0,.02-.01,.03-.02,.01,0,.04-.02,.09-.04,.05-.02,.12-.04,.22-.08,.1-.04,.23-.09,.4-.16h.05s.04,.05,.06,.12c.03,.07,.05,.11,.07,.14,0,.01,.02,.05,.02,.12,0,.07,.01,.11,.01,.13v.11c.02,.06,.04,.12,.07,.19,.03,.07,.05,.14,.05,.21,0,.11,0,.23-.02,.35-.02,.12-.03,.24-.02,.36,0,.05,0,.17,0,.36,0,.2,0,.43,0,.7,0,.27,0,.56-.01,.87,0,.31-.01,.6-.02,.87-.01,.27-.03,.5-.04,.69-.02,.19-.03,.31-.05,.35l-.31,.64-.06,.02s-.03-.04-.08-.04c-.05,0-.11,0-.17,0-.06,0-.12,0-.17,0-.05,0-.08-.02-.08-.04,0,0-.02,0-.05-.03-.02-.02-.05-.05-.09-.07l-.08-.07s-.04-.03-.04-.02h0Zm5.43,.4l-.03-.41s.01-.09,0-.14c0-.05,0-.1,0-.15,0-.01,0-.04,.01-.07,0-.03,.01-.05,.01-.07l-.02-.03v-.04c0-.07,0-.14,0-.2,0-.06,0-.13,.01-.2,0-.13,0-.26-.01-.39,0-.13,0-.26,0-.39,0-.08,.01-.16,0-.25,0-.08,0-.17,.04-.26,0,0-.01,0-.01,0v-.02c0-.06,.01-.13,0-.21,0-.08,0-.15,.02-.2,.05-.2,.07-.41,.07-.62,0-.21,0-.42,.02-.64v-.02h-.01l-.02-.25s0-.02,0-.03c0,0,0-.02,0-.03v-.02h-.01l-.07-.96c0-.07,0-.17,0-.29,.01-.12,.02-.22,.04-.29,.08-.08,.17-.16,.27-.25,.1-.09,.2-.18,.3-.26,.1-.08,.2-.16,.29-.23,.09-.07,.18-.13,.25-.18,.05,0,.11,0,.17,.02,.06,.02,.11,.02,.17,.02,.03,.01,.07,.02,.11,.02,.04,0,.08,0,.11,.02,.06,0,.12,.03,.19,.05,.06,.03,.13,.05,.19,.06,.35,.1,.68,.25,.98,.44,.3,.19,.56,.44,.77,.74,.09,.13,.15,.25,.19,.38,.04,.13,.08,.27,.12,.42,.03,.1,.06,.2,.1,.3,.04,.09,.07,.19,.11,.3,.04,.15,.07,.31,.08,.47,0,.17,.02,.32,.05,.48-.02,0-.03,.04-.03,.11,0,.07,0,.15,0,.25-.02,.13-.04,.28-.07,.45-.03,.17-.07,.33-.12,.46l-.04,.1c-.05,.1-.1,.22-.16,.35-.06,.13-.11,.22-.16,.27-.07,.08-.12,.16-.16,.25-.04,.09-.09,.17-.16,.25l-.56,.55c-.24,.24-.49,.48-.75,.72-.26,.24-.53,.42-.8,.53-.11,.07-.22,.13-.32,.16-.11,.03-.22,.05-.33,.06-.11,0-.21,0-.31,0-.1,0-.19-.02-.27-.05-.08-.02-.15-.04-.2-.07-.05-.02-.08-.04-.1-.05,0-.03,0-.05,0-.08,0-.03,0-.05,0-.06h-.06s.03-.03,.05-.04c.02,0,.03-.03,.03-.06,0,0-.01,0-.02,0,0,0-.03,0-.06,0l.11-.69h0Zm1.46-1.07c0,.09,0,.17,0,.24,0,.07,0,.15,0,.23v.11c.05-.04,.1-.07,.14-.09,.04-.03,.09-.06,.12-.09,.03-.02,.06-.05,.09-.11,.03-.06,.06-.09,.1-.09,.01,0,.03-.02,.05-.05,.02-.03,.03-.05,.05-.07,.03-.07,.07-.12,.12-.17,.05-.04,.1-.09,.13-.15,.11-.17,.21-.34,.31-.52,.1-.18,.18-.37,.24-.57l.14-.67c.02-.13,.03-.26,.03-.37,0-.11,0-.24,0-.38,0-.11-.02-.24-.05-.38-.02-.14-.06-.26-.11-.35-.09-.17-.21-.32-.36-.45-.15-.14-.3-.26-.46-.36-.1-.06-.2-.11-.3-.16-.1-.05-.21-.08-.33-.1,.03,.1,.06,.22,.08,.35,.02,.13,.03,.27,.04,.43,.02,.29,.03,.61,.02,.96,0,.35-.02,.69-.03,1.03-.01,.34-.03,.66-.04,.97-.01,.3-.01,.56,0,.76v.05h0Zm2.5-4.08s.05,.03,.08,.1c.03,.07,.06,.11,.08,.1,0-.03-.01-.08-.03-.15-.02-.07-.04-.15-.07-.22-.03-.08-.06-.15-.1-.21-.04-.06-.08-.09-.12-.09,0,0-.01,0-.02,.02,0,.01-.01,.02-.01,.03-.03-.02-.06-.05-.08-.09-.02-.05-.04-.08-.06-.11-.08-.1-.19-.21-.32-.34-.13-.13-.25-.22-.35-.28-.06-.03-.11-.06-.17-.08-.06-.03-.12-.05-.17-.08l-.04-.05s-.08-.03-.13-.03c-.05,0-.09-.01-.13-.03-.04-.02-.07-.03-.1-.05-.02-.02-.06-.03-.1-.05-.07-.02-.15-.04-.25-.05-.1-.01-.24-.03-.44-.05-.02,.01-.03,.03-.05,.04h0s.02,.05,.06,.06c.04,0,.06,.01,.07,.01,.05,0,.11,0,.17,0,.06,0,.12,0,.18,0,0,.01,0,.03-.02,.04,0,.06,.04,.09,.12,.11,.08,.01,.14,.03,.18,.04l.25,.1c.08,.03,.16,.07,.25,.11,.19,.08,.35,.19,.51,.33,.15,.14,.29,.28,.42,.43l.02,.03s.06,.04,.09,.06c.02,.02,.05,.04,.08,.07l.22,.25h0Zm-3.83,4.91c.04,.21,.07,.31,.09,.31,0,0,.01-.02,.02-.07,0-.05,0-.1,0-.17,0-.06,0-.12,0-.18,0-.06,0-.11,0-.14,0-.03,0-.05-.01-.07,0-.02-.01-.04-.01-.07,0-.05,0-.09,.01-.14,0-.05,.02-.09,.02-.14,0-.09,0-.18,0-.27,0-.09-.01-.18-.01-.27,0-.09,0-.19,0-.28,0-.1,0-.19,0-.28v-.11s.03-.05,.03-.1v-.05s-.03-.02-.05-.02c-.02,0-.03,.02-.03,.05,0,.01-.01,.04-.01,.08,0,.04,0,.06,0,.07l.02,.23s0,.06-.01,.13c0,.07,0,.12-.01,.13l.02,.25-.03,.06,.04,.52s-.02,.1-.03,.17c0,.07-.01,.13,0,.18,0,.01,0,.03,.01,.04,0,.02,.02,.03,.02,.04l-.04,.11h0Zm10.17-2.06s-.03,.06-.05,.08c-.02,.02-.04,.05-.05,.07-.01,.02-.03,.05-.06,.09l-.09,.12s-.06,.08-.08,.13c-.02,.04-.03,.07-.03,.09,0,.03-.01,.05-.05,.08-.03,.03-.06,.05-.07,.07-.03,.04-.06,.07-.1,.11-.03,.04-.07,.07-.1,.11-.03,.06-.07,.1-.12,.14-.05,.04-.09,.08-.14,.13l-.27,.26c-.05,.03-.08,.05-.09,.05,0,0-.02,0-.03,0l-.03,.03s-.02,.02-.03,.03c0,0-.03,.01-.06,.02-.04,0-.06,.01-.06,.01-.03,.02-.06,.03-.08,.06-.02,.02-.05,.04-.07,.05-.2,.11-.4,.2-.6,.28-.2,.08-.42,.13-.65,.14-.14,0-.28,0-.43-.03-.15-.03-.29-.08-.42-.15-.14-.06-.26-.14-.38-.23-.12-.09-.22-.19-.31-.3-.12-.15-.22-.29-.3-.42-.08-.14-.15-.28-.21-.42-.06-.14-.11-.29-.14-.45-.03-.16-.06-.33-.07-.51l-.02-.24s0-.05,0-.11c0-.06,0-.13,0-.2,0-.07,0-.13,0-.2,0-.06,0-.1,0-.12v-.04s0-.05,0-.1c0-.05,0-.11,0-.16,0-.06,0-.11,0-.16,0-.05,0-.08,0-.09,0-.05,0-.09,.01-.13,0-.04,0-.08,0-.12v-.04l.32-1.63s.02-.06,.04-.13c.02-.07,.03-.11,.05-.13,0,0,0-.02,.03-.05l.04-.05,.08-.18s.02-.02,.05-.05c.02-.02,.04-.04,.05-.06,0,0,0-.04,0-.11,.03-.02,.06-.02,.09-.02,.03,0,.05-.01,.06-.05,.05,.02,.1,.04,.13,.09,.03,.04,.07,.08,.11,.12,.02,.03,.07,.07,.16,.14,.08,.07,.14,.12,.16,.14,.02,.05,.04,.08,.07,.11,.03,.02,.05,.06,.08,.09,.02,.04,.04,.08,.05,.12,.01,.04,.03,.08,.04,.12,.02,.05,.04,.09,.06,.13,.02,.04,.04,.08,.06,.13v.17c.02,.12,0,.23-.02,.34-.03,.11-.06,.22-.08,.34-.03,.12-.04,.22-.05,.32,0,.1-.02,.21-.03,.32,0,.09-.01,.17-.02,.24,0,.06,0,.14,0,.23v.04s0,.05,.01,.07c0,.03,.01,.05,.02,.08,0,.03,0,.04,0,.05,0,.02,0,.04,0,.07,0,.03-.01,.05-.03,.07,0,.05,0,.1,0,.15,0,.05,0,.1,.01,.15,0,.04,0,.08,.01,.11,0,.03,0,.07,.01,.11,0,.02,0,.04-.01,.05,0,.01-.01,.03-.01,.05,0,.05,.01,.08,.02,.09,.01,.01,.02,.04,.04,.08,0,.02,.01,.04,0,.07,0,.03,0,.05,.02,.07,0,.03,.03,.06,.06,.1,.03,.04,.07,.08,.1,.11,.04,.04,.07,.07,.11,.1,.04,.03,.07,.05,.1,.06,.03,.02,.05,.03,.06,.03,.01,0,.03,.01,.04,.04,.02,0,.07,.02,.14,.04,.07,.02,.12,.03,.15,.03,0,.01,.01,.02,.03,.02,.01,0,.04,.01,.08,.02l.06,.02s.04,0,.07-.02c.04,0,.06-.01,.07-.02,.12-.01,.22-.04,.3-.09,.08-.04,.18-.08,.28-.12,.03-.02,.07-.04,.12-.07,.05-.03,.09-.06,.12-.07l.34-.36c.09-.09,.16-.18,.21-.26,.05-.08,.07-.19,.07-.32,0-.03,0-.13,0-.28-.01-.16-.03-.43-.05-.81-.02-.22-.05-.43-.11-.64-.06-.21-.14-.41-.23-.6l-.2-.43s-.05-.08-.09-.12c-.04-.04-.06-.09-.08-.14,0-.03,0-.05,0-.08,0-.03,0-.06,.01-.1,0-.01,0-.03,0-.06,0-.03,0-.05,0-.06,0-.07,.02-.13,.07-.16,.05-.04,.09-.07,.1-.11,0,0,0-.02,0-.05,0-.03,0-.04,.01-.05,0-.01,.01-.03,.02-.05,0-.02,.02-.03,.03-.05,.02-.03,.03-.08,.05-.15,.02-.06,.04-.11,.06-.15,0-.01,0-.02,.02-.02,.01,0,.02,0,.03-.02h.08c.21-.02,.38,.02,.54,.13,.15,.1,.28,.24,.38,.4,.01,.02,.03,.04,.05,.05,.02,.01,.03,.04,.04,.08,0,.02,.02,.03,.04,.04,.02,.04,.05,.1,.09,.18,.04,.08,.07,.17,.12,.26,.04,.09,.09,.17,.13,.25,.05,.07,.08,.12,.12,.13l.12,.3,.13,.61v.15s.01,.02,.02,.03c0,.02,.01,.03,.01,.04,0,.02,0,.04-.02,.05l.05,1.1s0,.03,0,.07c0,.04-.01,.06-.01,.07,0,.01,0,.04,0,.08,0,.04,0,.08-.01,.13,0,.04-.01,.08-.02,.11-.01,.03-.02,.05-.04,.05l-.43,.67h0Zm1.31,.71c0-.07,0-.13,0-.19,0-.06,0-.12,0-.18l-.26-3.62v-.04s0-.02,0-.03c0-.01,0-.02,0-.04h0s0-.03,0-.04c0-.01,0-.03,0-.04,0-.16,0-.32,0-.47,0-.16,.01-.32,.04-.48,0-.05,.02-.07,.05-.07h.04s.02-.01,.03-.02c0-.01,0-.04,0-.08,0-.04,0-.08,.01-.12,0-.04,.01-.08,.02-.11,0-.03,.02-.05,.04-.05,.03,0,.06,0,.09,.03,.03,.02,.06,.04,.09,.03,.07,0,.1-.03,.09-.08,0-.02-.02-.03-.04-.04,0,0,.02-.01,.03-.02,.01,0,.04-.02,.09-.04,.05-.02,.12-.04,.22-.08,.1-.04,.23-.09,.4-.16h.05s.04,.05,.06,.12c.03,.07,.05,.11,.07,.14,0,.01,.02,.05,.02,.12,0,.07,.01,.11,.01,.13v.11c.02,.06,.04,.12,.07,.19,.03,.07,.05,.14,.05,.21,0,.11,0,.23-.02,.35-.02,.12-.03,.24-.02,.36,0,.05,0,.17,0,.36,0,.2,0,.43,0,.7,0,.27,0,.56-.01,.87,0,.31-.01,.6-.02,.87-.01,.27-.03,.5-.04,.69-.02,.19-.03,.31-.05,.35l-.31,.64-.06,.02s-.03-.04-.08-.04c-.05,0-.11,0-.17,0-.06,0-.12,0-.17,0-.05,0-.08-.02-.08-.04,0,0-.02-.01-.05-.03l-.08-.07s-.06-.05-.09-.07c-.02-.02-.04-.03-.04-.02h0Zm3.22,.43c-.05,0-.11-.02-.16-.06-.05-.04-.1-.08-.13-.11-.1-.07-.2-.15-.29-.24-.1-.09-.18-.19-.25-.29-.17-.25-.32-.5-.44-.75-.12-.25-.19-.54-.21-.86-.02-.3,0-.6,.08-.87,.07-.28,.18-.55,.31-.82,.06-.14,.13-.28,.19-.43,.06-.15,.14-.28,.24-.4,0-.01,.02-.04,.05-.07,.03-.03,.06-.07,.09-.1,.03-.04,.06-.07,.09-.1l.06-.07,.21-.18s.04-.03,.07-.03c.07-.04,.14-.08,.21-.14,.07-.05,.14-.11,.2-.17l.15-.14,.02-.03s.02-.02,.02-.02l.04,.02s.05-.01,.06-.03c0-.02,.02-.03,.04-.05,.08-.05,.16-.1,.25-.13,.09-.04,.17-.08,.25-.13,.02,0,.05-.02,.09-.04,.04-.02,.09-.04,.14-.06,.05-.02,.09-.04,.14-.05,.04-.02,.07-.03,.09-.04,.07,0,.15-.02,.22-.04,.08-.02,.15-.04,.23-.06,.01,0,.04,0,.09,0s.1,0,.15,0c.05,0,.1,0,.15,0,.05,0,.08,0,.09,0h.05s.05-.01,.06-.02c.01-.01,.03-.02,.06-.02,.06,0,.13,.01,.22,.04,.09,.03,.16,.06,.2,.08,.16,.06,.32,.15,.49,.27,.17,.12,.31,.25,.4,.39,.07,.1,.13,.22,.2,.35,.07,.13,.13,.27,.19,.41,.06,.14,.12,.28,.17,.43,.05,.14,.1,.27,.13,.39,0,0,.01,.03,.02,.06,0,.04,0,.06,.01,.07,0,.03,.02,.07,.03,.12,.01,.05,.02,.09,.02,.13,.01,.15,.01,.29,0,.42-.01,.13-.02,.27-.03,.41,0,.09,0,.18,0,.27s0,.17-.03,.27c-.01,.08-.05,.19-.11,.33-.06,.14-.14,.27-.24,.39,0,0-.02,.02-.04,.05-.02,.03-.04,.06-.07,.1-.02,.04-.05,.07-.07,.1-.02,.03-.03,.05-.04,.06-.06,.08-.13,.13-.2,.14-.07,.01-.14,.05-.21,.1-.09,.08-.17,.16-.26,.25-.09,.09-.18,.17-.27,.25-.06,.04-.12,.09-.18,.12-.06,.04-.12,.08-.18,.12-.05,.04-.1,.09-.14,.14-.04,.05-.1,.09-.16,.12-.03,.02-.04,.03-.05,.04,0,.01-.01,.03-.03,.04-.06,.04-.12,.08-.19,.1-.07,.02-.13,.05-.2,.08-.15,.08-.31,.15-.48,.21-.17,.06-.35,.09-.52,.1-.17,.01-.34,0-.51-.05-.17-.04-.33-.13-.47-.26-.02-.01-.05-.02-.08-.04-.03-.01-.05-.04-.05-.07h0Zm-.07-2.81s.04,.11,.1,.28c.06,.18,.17,.37,.32,.58,.15,.21,.37,.4,.64,.57,.27,.17,.64,.26,1.09,.27,0,.01,0,.02,.02,.02,.01,0,.03,0,.04,.01l.32-.12s.02-.01,.04-.02c.02,0,.04,0,.05,0,.09-.1,.16-.2,.22-.3,.06-.1,.12-.21,.18-.33,.03-.06,.06-.11,.09-.17,.03-.06,.06-.11,.08-.17,.08-.22,.13-.45,.17-.68,.03-.24,.04-.47,.03-.7,0-.08-.02-.17-.04-.27-.02-.1-.05-.27-.08-.51v-.03c0-.05-.03-.13-.09-.24-.05-.11-.14-.21-.25-.31-.11-.1-.25-.19-.41-.26-.16-.07-.35-.1-.57-.09-.13,0-.25,.02-.37,.04-.12,.02-.25,.05-.38,.08l-.47,.22c-.07,.03-.13,.07-.17,.13-.04,.05-.08,.11-.11,.17-.02,.03-.03,.07-.04,.11,0,.04-.02,.08-.04,.11-.12,.26-.22,.52-.3,.78-.08,.26-.1,.53-.08,.82h0Z"/><path class="b" d="M178.57,91.32s-.04-.03-.09-.04c-.04-.02-.08-.03-.12-.04h-.04v-.04s-.05-.06-.07-.07c-.02-.01-.04-.04-.05-.07l-.11-.3s0-.05-.02-.05c-.05-.18-.08-.37-.11-.55-.03-.18-.06-.37-.1-.54,0-.01,0-.04-.01-.08,0-.04-.01-.08-.02-.13,0-.05-.02-.09-.02-.12,0-.04,0-.06,0-.07v-.06s-.03,0-.04,0c0,0-.02,0-.04,0l-.04,.02s-.05,0-.12,0c-.07,0-.11,0-.13,0h-.04c-.05,0-.09,.02-.1,.05-.01,.03-.05,.05-.1,.06-.04,0-.08,.02-.11,.02h-.11l-.23,.02c-.16,.01-.31,.03-.45,.06-.04,.14-.09,.26-.13,.38-.05,.12-.09,.24-.13,.37-.02,.2-.06,.36-.13,.48-.06,.12-.14,.21-.23,.28-.09,.07-.19,.11-.29,.14-.1,.03-.2,.04-.29,.05-.03,0-.06,0-.09,0-.03,0-.05,0-.07,0h-.12c-.08,.01-.12,.03-.13,.06,0-.02-.02-.03-.05-.04,0-.03-.02-.04-.04-.04-.03,0-.04,.02-.05,.04-.01-.02-.04-.03-.07-.04-.03,0-.06-.01-.09-.02v-.03s-.03-.08-.05-.13l-.04,.04c0-.14,0-.28,.02-.43,.02-.14,.05-.28,.1-.42l.94-2.99v-.03l.12-.4s.04-.07,.04-.11c0-.04,.01-.08,.02-.11l.2-.59s.05-.07,.05-.11c0-.04,.02-.08,.04-.12,.02-.03,.04-.06,.06-.09,.02-.03,.06-.08,.12-.14,.05-.06,.12-.13,.2-.21,.08-.09,.2-.2,.34-.33,.02-.04,.07-.06,.13-.08,.06-.02,.13-.03,.2-.04,.03,0,.07,0,.12,0,.05,0,.11,0,.16,0,.05,0,.1,.02,.15,.03,.04,.01,.07,.04,.08,.07,.02,0,.03,0,.03,0,0,.01,.02,.02,.06,.02,.18,.03,.32,.12,.43,.26,.03,0,.06,.06,.11,.16,.04,.1,.09,.22,.13,.35,.05,.13,.09,.24,.13,.35,.04,.11,.07,.17,.09,.18v.05s0,.03,.01,.06c0,.03,.01,.04,.02,.04,.01,.09,.04,.17,.08,.25,.04,.08,.08,.17,.12,.25,.04,.08,.08,.17,.12,.25,.04,.08,.06,.16,.06,.25,0,.01,0,.03,.01,.04l.02,.04s.02,.07,.04,.12c.02,.05,.04,.1,.06,.16,.02,.06,.03,.12,.05,.17,.02,.06,.03,.1,.03,.13l.22,.86v.05c0,.09,.03,.19,.05,.29,.03,.1,.05,.19,.07,.28l.06,.55s0,.07,0,.18c0,.11-.03,.23-.08,.38-.05,.14-.13,.29-.24,.43-.11,.14-.28,.25-.49,.33h0Zm-1.57-4.56c-.02,.09-.04,.18-.06,.27-.02,.08-.04,.17-.06,.26-.02,.12-.05,.24-.07,.37-.02,.12-.05,.25-.08,.37-.02,.07-.05,.14-.08,.2-.03,.07-.04,.14-.04,.21,.11,0,.22-.02,.34-.05,.11-.02,.22-.04,.34-.05h.05s.05,0,.1,0c.05,0,.08,0,.09,0,.01,0,.03,0,.04,0,.02,0,.02-.01,.02-.03l-.03-.08c-.02-.06-.04-.12-.07-.19-.02-.07-.05-.15-.08-.22-.03-.08-.05-.14-.07-.19l-.07-.13c-.04-.11-.08-.22-.11-.34-.03-.11-.07-.23-.1-.35,0,0,0-.02-.01-.03,0-.02-.02-.02-.04-.02h0Zm4.96,5.07c-.15-.02-.31-.04-.47-.07-.16-.03-.31-.07-.46-.12-.15-.05-.28-.12-.41-.2-.13-.08-.23-.19-.31-.31-.05-.08-.11-.15-.16-.23-.06-.08-.09-.16-.09-.25h0s0-.02,0-.02c0,0,0,0,0-.01,0-.01-.02-.02-.03-.03-.01,0-.02-.02-.02-.04,0-.01,0-.02,0-.03,0,0,0-.01,0-.03,0,0,0-.02-.01-.04,0-.02-.01-.04-.01-.04,0,0,0-.02,.02-.07,0-.05,0-.11,0-.18,0-.08,.02-.15,.03-.23,.02-.08,.04-.15,.07-.21,.03-.07,.07-.11,.11-.14,0-.01,0-.05,.04-.12,.03-.07,.06-.11,.07-.13,.01-.02,.03-.03,.05-.04,.02,0,.04-.02,.05-.05,.03-.06,.06-.11,.08-.17,.03-.06,.08-.09,.17-.1h.04l.03,.03s0,0,.01,0c0,.03,.02,.07,.06,.12,.04,.04,.09,.09,.14,.13,.05,.04,.11,.08,.16,.12,.06,.04,.1,.07,.14,.1,.04,.06,.08,.12,.13,.18,.05,.05,.07,.12,.08,.19,0,.03,0,.07,0,.1,0,.03,0,.07,0,.11,.04,.05,.08,.1,.13,.16,.05,.05,.11,.09,.19,.1,.02,0,.05,.01,.09,.02,.04,.01,.08,.02,.12,.03,.04,0,.08,.01,.11,.02,.03,0,.05,.01,.06,.01,.02,0,.05,0,.08,0h.1l.17-.02c.13,0,.25-.03,.37-.07,.12-.04,.24-.08,.37-.14l.21-.1v-.02s0-.01,0-.02c0,0,0,0,0-.02,0-.05-.03-.1-.09-.16-.05-.06-.12-.12-.19-.18-.07-.06-.15-.11-.22-.16-.07-.05-.12-.09-.15-.12l-1.67-.95h-.04s-.03-.02-.06-.03c-.03-.02-.07-.04-.1-.06-.04-.02-.08-.05-.12-.07-.04-.02-.07-.05-.09-.06-.22-.13-.39-.29-.52-.49-.13-.19-.2-.41-.22-.64-.01-.15,.01-.33,.06-.52,.05-.19,.12-.39,.2-.58,.08-.19,.17-.37,.26-.54,.09-.17,.17-.3,.24-.4,.05-.07,.1-.13,.17-.19,.06-.06,.13-.11,.19-.16,.2-.15,.39-.27,.58-.37,.19-.1,.41-.16,.66-.18,.17-.01,.34,0,.51,.02,.17,.03,.33,.08,.47,.17,.03,.01,.05,.04,.08,.07,.03,.04,.05,.08,.07,.11l.06,.11s.03,.05,.05,.05c.08,.05,.17,.11,.26,.18,.09,.07,.17,.14,.24,.22,.07,.08,.13,.16,.18,.26,.05,.09,.08,.19,.09,.3,0,.11,.01,.22,0,.35,0,.13-.01,.25-.04,.36-.04,.14-.12,.24-.24,.3-.12,.07-.25,.12-.38,.17l-.05,.02c-.1,.02-.19,.05-.28,.1-.09,.05-.17,.1-.25,.15,0,.03,0,.05-.01,.08,0,.02-.01,.03-.02,.04-.07,0-.13-.03-.17-.1-.04-.07-.06-.14-.06-.2,0,0,0-.01,0-.02,0,0,0-.01,0-.02,0,0,0,0,0-.02,0-.03,0-.07-.02-.11-.01-.04-.02-.08-.02-.11-.02-.1-.03-.2-.04-.3,0-.1-.02-.2-.04-.3v-.16s-.02-.02-.03-.05c-.01-.03-.02-.05-.02-.06-.02-.04-.03-.07-.03-.11,0-.03-.04-.05-.09-.06-.01,0-.04-.01-.09-.02-.05-.01-.09-.01-.12-.01-.03,0-.06,.01-.1,.04-.04,.02-.08,.05-.12,.08-.04,.03-.08,.06-.12,.09-.04,.03-.07,.05-.1,.06-.05,.02-.1,.05-.16,.08-.05,.03-.11,.06-.16,.1,0,0-.01,0-.01,0,0,0,0,0-.01,0h-.02c-.15,.08-.23,.19-.22,.35,0,.04,0,.08,0,.11,0,.03,.01,.07,.03,.12,0,0,.03,.03,.07,.09,.04,.06,.07,.1,.08,.11,.02,.05,.1,.11,.24,.19,.14,.08,.28,.16,.44,.24,.16,.08,.3,.15,.42,.2,.12,.05,.19,.08,.2,.08,.05,.03,.1,.06,.13,.08,.03,.02,.07,.05,.12,.08,.05,.03,.1,.05,.16,.06,.06,.01,.11,.03,.15,.06,0,0,.01,0,.02,.02,0,.01,.02,.02,.02,.03,.04,.04,.09,.08,.14,.1,.05,.02,.1,.06,.16,.1,.01,0,.03,.01,.06,.03,.02,.01,.05,.03,.08,.04,.03,.02,.06,.05,.09,.06l.34,.27c.04,.05,.1,.1,.17,.14,.07,.04,.13,.09,.17,.14,.09,.08,.14,.17,.17,.26,.03,.09,.06,.19,.1,.28,.03,.07,.06,.14,.09,.2,.03,.06,.04,.13,.05,.21,0,.04-.01,.11-.04,.21-.03,.1-.08,.22-.15,.36-.07,.14-.17,.29-.29,.44-.12,.16-.27,.3-.46,.44-.06,.06-.12,.1-.19,.13-.07,.03-.14,.06-.21,.1-.03,.01-.05,.03-.07,.05-.02,.02-.05,.03-.07,.05,0,0,0,.01,0,.01,0,0-.01,0-.02,.01-.05,.02-.1,.05-.15,.09-.05,.03-.1,.06-.15,.09-.05,.03-.09,.05-.13,.05-.04,0-.08,.01-.13,.03-.02,.01-.05,.03-.08,.05-.04,.02-.07,.03-.1,.04-.03,0-.06,.02-.11,.03-.05,.01-.08,.02-.09,.02h-.05s-.11,0-.18,.01c-.07,0-.12,0-.15,0-.01,0-.05,0-.12-.01-.06,0-.11,0-.13,0h0Z"/><path class="b" d="M15.35,60.02c.58,.89,3.58,3,4.46,3.16-.02-.54-1.65-1.6-2.2-1.97l.41,.07c.32,.02,.07,.11,.31-.03-.54-1.29-2.36-2.86-2.5-3.06-.27-.37-.42-.66-.74-1.01-1.32-1.47-2.31-3.34-3-4.11,0,.48,0,.36,.19,.82l.76,2.13c.46,1.05,.66,1.63,1.32,2.67,.31,.48,.68,.87,.99,1.35h0Zm20.66,12.33c.2-.14,.11,0,.22-.25-1.39-1.14-2.93-.78-3.89-1.47-.91-.66-.96-.11-1.77-.18-.59-.05-1.4-.43-1.92-.47,1.46,.73,4.32,1.74,5.78,2.17l1.08,.21s.07,0,.1,0c.16,0,.19,.02,.4,0h0Zm0,0c-.1,.27-.21,.31-.52,.54,1.66,.53-.43-.33,1.89,.02-.15-.03-.05-.04-.2-.01-.33,.06-.03,0-.34,.13,.52,.18,.73,.23,1.25,.24,.21,0,.43,.01,.61-.02,.35-.07,.2-.03,.38-.19-.39-.06-1.02-.38-1.57-.5-.67-.14-.64,.13-1.48-.21h0Zm-14.66-1.09c.78,.79,5.56,2.43,7.02,2.64,2.89,.4,1.13,.47,2.62,.72,.83,.14,.58-.12,1.32,.09l2.72,.28c.24-.02,.47-.03,.68-.08,1.12-.28,.54-.14,1.9-.05,.59,.04,2.04-.11,2.55-.29,1.72-.6,.45,0,2.5-.27,0-1.07-.67-.74-1.52-.63-2.16,.26-3.73,.23-5.93-.27-1.51-.34-3.36,.02-3.93,.03-.48,0-.53-.11-1.06-.21-1.14-.21,.49,.29-2.03-.36-.27-.07-.67-.15-.92-.2,.4-.31,1.08-.11,1.58-.02l3.5,.28s.07,0,.1,0c.03,0,.07,0,.11,0h.21c.3,.01,.33,.08,.63,.03-.57-.13-1.46-.35-2.13-.66-.26-.12-.35-.2-.6-.31-.4-.18-.36-.12-.52-.17-1.82-.54-3.73-2.79-4.87-3.09-1.43-.37-3.05-.97-4.33-1.85-1.27-.88-3.01-1.73-4.17-2.55-.25,.19-.11,.27-.2,.35-.41-.28-.84-.61-1.17-.95-2.26-2.36-1.93-1.01-3.88-2.6,.1,.7,1.68,3.06,2.28,3.86,1.17,1.57,.32,.64,1.68,1.77,.83,.69,1.09,1.22,1.94,1.69,.97,.53,1.4,1.05,2.39,1.47,1.88,.81,4.16,1.65,6.15,2.2,1.86,.51,.9,.05,1.05,.5-.67,.11-.14,.03-.72-.05-1.88-.26-.06,.12-2.14-.48-2.11-.61-1.94-1.43-2.8-.82h0Zm20.48,7.91c1.47-.45,3.37-.38,4.79-.86,.38-.13,.49-.13,.94-.25,1.66-.48,3.73-1.41,5.28-2.16,.37-.18,.49-.21,.89-.43l2.51-1.56c1.67-1.11,3.43-2.45,4.91-3.88,1.41-1.35,5.28-5.29,5.93-6.88,.26-.62,1.09-1.35,.86-2.04l-1.4,1.72c.02-.39,.46-.82,.72-1.38,.33-.71,.87-1.39,.76-1.81-.66,.15-1.63,1.94-2.09,2.59-1.57,2.24-3.45,4.01-5.38,5.88-4.34,4.19-4.72,4.8-10.32,7.52l-2.57,.95c-.32,.13-.28,.17-.63,.29-1.48,.54-3.49,.92-4.99,.95-.03,0-.07,0-.1,0l-1.3,.03c-1.05-.07-1.29,0-2.3,.12l-1.41,.03c-2.03,.06-6.71-.34-8.52-1.31l2.44,.1c2.07-.01,1.77-.42,2.27-.54,.37,.03,.55,.15,1.06,.17l2.76,.12c1.16,.13,2.96,.41,3.52-.64-.38-.75-.91-.41-2.49-.36-.57,.02-.73,.12-1.37,.1-.43-.02-.84-.02-1.32-.01-4.69,.06-4.68-.84-7.61-1.27-.46-.07-.38-.01-.73-.07l-3.7-1.06c-.55-.28-.35-.28-.68-.47-.47-.26-.67-.1-1.4-.56-.5-.31-.37-.33-.68-.55-.38-.25-.2-.11-.4-.17l-.17-.02s-.06,0-.07-.02c-.42-.17-.25-.69-.88-.95-.07,.08,0,.09,.02,.42-1.88-.97-1.4-.99-2.8-2.13-.7-.57-.51-.77-1.12-1.31-.51-.45-1.09-.63-1.61-1.06-.55-.46-2.39-2.22-2.66-2.31-.39-.13-.17,.24-.75-.32-.12-.12-.36-.48-.5-.67-.71-.93-.87-1.78-1.49-2.74-.57-.88-1.23-1.72-1.64-2.7-.2-.49-.3-.92-.5-1.38-.55-1.24-1.51-2.21-2.2-3.35l-.48-1.3c-.18-.35-.27-.3-.59-.37,.28-.51,.22-.26,.19-.71-.03-.47-.05-.14-.05-.39,0-.29-.15,.2,.05-.34-.03,0-.07,.02-.09,.02-.01,0-.07,.01-.08,.02-.68,.04,.18,.18-.2-.01-.18-.09-.15-.38-.27-.63l.44-.14c-.37-.47-.21-.04-.18-.54-.42,.04-.3,.16-.58,.06-.02-.35-.11-.37,.06-.48,.39-.25-.05-.04,.13,0l.5-.65-.56-.15c.36-.36,.45-.55,.23-1.17-.28-.78-.28-.47-.16-1.34-.49,.12-.33,.23-.89-.1-.04-.86,.29-.04-.28-1.28-.16-.35,.05-.34,.06-.35l.07-.7s-.03-.05-.04-.06c-.01-.02-.04-.05-.05-.07l-.17-.24c.29-.22,.24-.3,.57-.27-.42-.07-.29-.15-.79-.48,.03,.05,.18,.22,.19,.33l-.07,.25s-.03,.06-.06,.09l-.37-.49-.15-2.55c-.02-.52-.16-.66-.03-1.24,.23-1.07,.23-2.55,1.27-3.25,.81-.54,.44-.24,.68-1,.56-1.75,1.24-2.11,2.07-3.87,.5-1.05,.87-1.98,1.61-3.05,.53-.75,.4-.26,.7-1.09,.34-.94,.8-2.21,1.32-3.01,.1-.16,.24-.26,.28-.3,.73-.66-.39,.47,.19-.16,.19-.21,.18-.26,.35-.49,2.22-3.02,2.23-2.24,3.5-3.52,.07-.07,.06-.05,.17-.19,1.04-1.3,2.38-2.4,3.43-3.73,1.02-1.3,1.61-.02,2.41-.86,.59-.62,.15-.71,.83-1,.47-.21,.63-.4,1.08-.88,1.42-1.52,1.33-1.19,2.8-3.24,.48-.68,.08-.2,.45-.42,.19-.11,.37-.24,.53-.33,.27-.16,1.42-.47,.92,.15l-1.68,1.31c.11,.43,.4,.57,.22,.99-.39,.92-1.53,.23-.99,2.52,.66,0,.43-.03,1-.49l2.89-2.01c.43-.3,.6-.4,1.02-.74,.33-.26,.6-.35,.95-.55,.38-.21,.19-.12,.52-.36,.36-.26,.18-.13,.43-.26,.92-.48,1.83-1.43,2.87-1.7,1.19-.31,1.48-.81,2.65-1.06,.84-.18,1.69-.74,2.5-1.01,.24-.08-.05-.22,.43-.07,.76,.23,.29,.17,.37,.32-.48,.12-.74,.06-1.23,.21-.4,.12-.7,.54-1.02,.69-.12,.06-.92,.27-1.22,.37-2.07,.75-1.19,2.64,.23,2.02l2.27-.86,.42,.35c.43,.43,.29,.64,1.2,.32l.69-.34c.11-.04,.67,0,.85,.01v-.14c.08-.3-.04,.12,.05-.15,.06-.18-.15,.07,.14-.24,.94,.33,.67,.26,1.45-.11,.6-.28,.38-.03,.88-.14l1.36-.2,1.86-.98c.6-.29,.82,.06,1.5-.06l1.45-.25c.55-.07,.72-.28,1.45-.25,.6,.02,.86,.16,1.46,.19,.81,.04,2.15-.46,2.88-.22,1.43,.47,1.66-.02,2.82-.02,1.41,0,4.75,.2,6.01,.61-.97,.43-1.9-.43-2.78,.63,.75,.33,.79,.13,1.39,.28,.32,.08,.56,.35,1.15,.47,.83,.16,1.82-.19,2.48,.27-.5,.14-.91,.21-1.55,.12-.36-.05-.5-.1-.84-.13-.76-.07-.27-.22-.66,.14,.28,.46,1.84,.39,2.31,.29v.83c-.41,.03-1.4-.2-1.89-.24l-4.53,.08c-.83,.26-.42,.5-.4,.57,.27,.99,3.61,.43,4.39,.84-2.79,1.6-.58-.14-4.44,1.36l-6.16,.75c-.65,0-.98,.36-1.39,.9,.69,.23,.79,.03,1.42-.04,.69-.08,.67,.09,1.23-.08-.29,.27-.75,.38-1.11,.53l-.41,.17c.71,.07,1.4-.33,2.16-.27-.45,.34-1.39,.53-1.96,.79l-1.94,.65c.73,.58,.52,.28,1.12,.42,.64,.15,.45,.29,1.12,.43,.74,.15,3.38,.7,4.07,.1,.46-.4,.22-.46,.84-.64,.49-.14,.51,.05,.93-.25-.22-.68-.66-.59-.85-1.13,.42-.31-.02-.15,.64-.06,.23,.03,.4,.06,.64,.11,.46,.35-.26-.47,.05,.15l1.27,1.27c.78-.17,.11-.43,1.27,.02l4.32,2.03c1.94,.99,4.04,2.31,5.64,3.62,2.37,1.94,4.36,3.75,5.91,6.29,.69,1.13,.53,1.37,1,2.26,.41,.79,.78,1.46,1.05,2.34,.29,.93,.44,2.87,.19,3.89-.34,1.36-.88,3.15-1.54,4.36-1.25,2.25-.82,3.3-1.48,5.64-.13,.45-.04,.38-.17,.77-.09,.26-.19,.37-.29,.68-.19,.59-.03,.66-.31,1.35-.45,1.1-.6,1.76-.88,2.8-.51,1.95-1.83,3.88-2.75,5.77l-2.09,4.55c-.48,.97-.11,.19-.54,.55-.27,.22-.24,.23-.48,.56-4.85,6.82-3.08,4.01-7.96,9.07-2.64,2.74-5.85,4.77-8.89,6.01-1.55,.63-3.19,1.33-4.83,1.59-.45,.07-.82,.17-1.24,.26-.85,.19-2.97,.59-3.72,.32h0Z"/><path class="b" d="M137.17,86.94c-.11,0-.22,0-.33-.01-.11,0-.22-.03-.33-.05-.11-.02-.21-.06-.31-.11-.1-.05-.19-.11-.27-.19-.05-.05-.1-.1-.15-.15-.05-.05-.09-.1-.11-.17h0s0-.01,0-.02c0,0,0,0,0,0,0,0-.02-.01-.03-.02-.01,0-.02-.01-.02-.02,0,0,0-.02,0-.02,0,0,0,0,0-.02,0,0,0-.01-.02-.03,0-.02-.02-.02-.02-.03,0,0,0-.01,0-.05-.01-.03-.02-.07-.03-.13-.01-.05-.02-.11-.02-.16,0-.05,0-.11,0-.15,0-.05,.02-.08,.05-.11,0,0,0-.04,0-.09,.01-.05,.02-.08,.02-.09,0-.02,.01-.02,.03-.03,.01,0,.02-.02,.03-.04,0-.04,.02-.08,.02-.12,0-.04,.04-.07,.1-.08h.05s0,.02,0,.02c0,.02,.03,.05,.06,.08,.03,.03,.07,.05,.12,.08,.04,.03,.09,.05,.13,.07,.05,.02,.08,.04,.11,.06,.04,.04,.08,.08,.12,.11,.04,.03,.07,.07,.09,.12,0,.02,.01,.05,.01,.07,0,.02,0,.05,.02,.08,.03,.03,.07,.06,.12,.1,.04,.03,.09,.05,.15,.06,.01,0,.04,0,.06,.01,.03,0,.06,0,.08,.01,.03,0,.05,0,.08,0,.02,0,.04,0,.04,0,.01,0,.03,0,.05,0h.07l.11-.03c.08-.01,.16-.04,.24-.07,.08-.03,.15-.07,.22-.12l.12-.09h0s0-.02,0-.02c0,0,0,0,0-.01v-.02s.06-.02,.1-.07c.1-.15-.2-.13,.11-.18,.19-.03-.16-.17,.36-.06,.02-.02,.19-.07,.27,.1,.05,.1,.1,.16,.16,.2l-.02,.07c-.02,.1-.06,.21-.12,.32-.05,.12-.13,.23-.23,.33-.03,.04-.06,.08-.1,.1-.04,.02-.08,.05-.12,.08-.01,.01-.03,.02-.04,.04-.01,.01-.02,.03-.04,.04,0,0,0,0,0,0,0,0,0,0-.01,0-.03,.02-.06,.04-.09,.07-.03,.03-.06,.05-.09,.07-.03,.02-.06,.04-.08,.04-.02,0-.05,.01-.08,.03-.01,.01-.03,.02-.05,.04-.02,.01-.04,.02-.06,.03-.02,0-.04,.02-.07,.03-.03,.01-.05,.02-.06,.02h-.03s-.07,.02-.12,.02c-.05,0-.08,.01-.1,.01-.01,0-.04,0-.08,0-.04,0-.07,0-.09,0h0Z"/><path class="b" d="M188.38,83.39c-.11,0-.22,0-.33-.01-.11,0-.22-.03-.33-.05-.11-.02-.21-.06-.31-.11-.1-.05-.19-.11-.27-.19-.05-.05-.1-.1-.15-.15-.05-.05-.09-.1-.11-.17h0s0-.01,0-.01c0,0,0,0,0,0,0,0-.02-.01-.03-.02-.01,0-.02-.01-.02-.02,0,0,0-.02,0-.02,0,0,0,0,0-.02,0,0,0-.01-.02-.03,0-.01-.02-.02-.02-.03,0,0,0-.01,0-.05-.01-.03-.02-.07-.03-.13-.01-.05-.02-.11-.02-.16,0-.05,0-.11,0-.15,0-.05,.02-.08,.05-.11,0,0,0-.04,0-.09,.01-.05,.02-.08,.02-.09,0-.02,.01-.02,.03-.03,.01,0,.02-.02,.03-.04,0-.04,.02-.08,.02-.12,0-.04,.04-.07,.1-.08h.05s0,.02,0,.02c0,.02,.03,.05,.06,.08,.03,.03,.07,.05,.12,.08,.04,.03,.09,.05,.13,.07,.05,.02,.08,.04,.11,.06,.04,.04,.08,.08,.12,.11,.04,.03,.07,.07,.09,.12,0,.02,.01,.05,.01,.07,0,.02,0,.05,.02,.08,.03,.03,.07,.06,.12,.1,.04,.03,.09,.05,.15,.06,.01,0,.04,0,.06,.01,.03,0,.06,0,.08,.01,.03,0,.05,0,.08,0,.02,0,.04,0,.04,0,.01,0,.03,0,.05,0h.07l.11-.03c.08-.01,.16-.04,.24-.07,.08-.03,.15-.07,.22-.12l.12-.09h0s0-.02,0-.02c0,0,0,0,0-.01v-.02s.06-.02,.1-.07c.1-.15-.2-.13,.11-.18,.19-.03-.16-.17,.36-.06,.02-.02,.19-.07,.27,.1,.05,.1,.1,.16,.16,.2l-.02,.07c-.02,.1-.06,.21-.12,.32-.05,.12-.13,.23-.23,.33-.03,.04-.06,.08-.1,.1-.04,.02-.08,.05-.12,.08-.01,.01-.03,.02-.04,.04-.01,.01-.02,.03-.04,.04,0,0,0,0,0,0,0,0,0,0-.01,0-.03,.02-.06,.04-.09,.07-.03,.03-.06,.05-.09,.07-.03,.02-.06,.04-.08,.04-.02,0-.05,.01-.08,.03-.01,.01-.03,.02-.05,.04-.02,.01-.04,.02-.06,.03-.02,0-.04,.02-.07,.03-.03,.01-.05,.02-.06,.02h-.03s-.07,.02-.12,.02c-.05,0-.08,.01-.1,.01-.01,0-.04,0-.08,0-.04,0-.07,0-.09,0h0Z"/><path class="b" d="M146.32,94.36c-.02,.06-.04,.13-.06,.2l-.03,.15h.02v.02h.03s-.04,.07-.02,.13c.04,.18,.23-.05,.05,.2-.11,.16,.23,0-.21,.3,0,.03-.08,.18-.26,.12-.1-.04-.19-.04-.25-.03l-.04-.06c-.05-.09-.1-.19-.15-.31-.04-.12-.07-.25-.08-.4-.01-.05-.01-.1,0-.14,.01-.05,.02-.09,.03-.14,0-.02,0-.04,0-.06,0-.02,0-.04,0-.06,0,0,0,0,0,0,0,0,0,0,0-.01,0-.03,.01-.06,.01-.09,.05-.08,.09-.14,.25-.12,.07,0,.03-.18,.37-.02,.1,.05,.15-.06,.2,.07,.05,.12,.09,.2,.13,.27h0Z"/></svg>