<?xml version="1.0" encoding="UTF-8"?><svg id="a" xmlns="http://www.w3.org/2000/svg" viewBox="0 0 79.13 75.35"><defs><style>.b{fill:#ff0789;fill-rule:evenodd;}</style></defs><path class="b" d="M15.35,56.1c.58,.89,3.58,3,4.46,3.16-.02-.54-1.65-1.6-2.2-1.97l.41,.07c.32,.02,.07,.11,.31-.03-.54-1.29-2.36-2.86-2.5-3.06-.27-.37-.42-.66-.74-1.01-1.32-1.47-2.31-3.34-3-4.11,0,.48,0,.36,.19,.82l.76,2.13c.46,1.05,.66,1.63,1.32,2.67,.31,.48,.68,.87,.99,1.35h0Zm20.66,12.33c.2-.14,.11,0,.22-.25-1.39-1.14-2.93-.78-3.89-1.47-.91-.66-.96-.11-1.77-.18-.59-.05-1.4-.43-1.92-.47,1.46,.73,4.32,1.74,5.78,2.17l1.08,.21s.07,0,.1,0c.16,0,.19,.02,.4,0h0Zm0,0c-.1,.27-.21,.31-.52,.54,1.66,.53-.43-.33,1.89,.02-.15-.03-.05-.04-.2-.01-.33,.06-.03,0-.34,.13,.52,.18,.73,.23,1.25,.24,.21,0,.43,.01,.61-.02,.35-.07,.2-.03,.38-.19-.39-.06-1.02-.38-1.57-.5-.67-.14-.64,.13-1.48-.21h0Zm-14.66-1.09c.78,.79,5.56,2.43,7.02,2.64,2.89,.4,1.13,.47,2.62,.72,.83,.14,.58-.12,1.32,.09l2.72,.28c.24-.02,.47-.03,.68-.08,1.12-.28,.54-.14,1.9-.05,.59,.04,2.04-.11,2.55-.29,1.72-.6,.45,0,2.5-.27,0-1.07-.67-.74-1.52-.63-2.16,.26-3.73,.23-5.93-.27-1.51-.34-3.36,.02-3.93,.03-.48,0-.53-.11-1.06-.21-1.14-.21,.49,.29-2.03-.36-.27-.07-.67-.15-.92-.2,.4-.31,1.08-.11,1.58-.02l3.5,.28s.07,0,.1,0c.03,0,.07,0,.11,0h.21c.3,.01,.33,.08,.63,.03-.57-.13-1.46-.35-2.13-.66-.26-.12-.35-.2-.6-.31-.4-.18-.36-.12-.52-.17-1.82-.54-3.73-2.79-4.87-3.09-1.43-.37-3.05-.97-4.33-1.85-1.27-.88-3.01-1.73-4.17-2.55-.25,.19-.11,.27-.2,.35-.41-.28-.84-.61-1.17-.95-2.26-2.36-1.93-1.01-3.88-2.6,.1,.7,1.68,3.06,2.28,3.86,1.17,1.57,.32,.64,1.68,1.77,.83,.69,1.09,1.22,1.94,1.69,.97,.53,1.4,1.05,2.39,1.47,1.88,.81,4.16,1.65,6.15,2.2,1.86,.51,.9,.05,1.05,.5-.67,.11-.14,.03-.72-.05-1.88-.26-.06,.12-2.14-.48-2.11-.61-1.94-1.43-2.8-.82h0Zm20.48,7.91c1.47-.45,3.37-.38,4.79-.86,.38-.13,.49-.13,.94-.25,1.66-.48,3.73-1.41,5.28-2.16,.37-.18,.49-.21,.89-.43l2.51-1.56c1.67-1.11,3.43-2.45,4.91-3.88,1.41-1.35,5.28-5.29,5.93-6.88,.26-.62,1.09-1.35,.86-2.04l-1.4,1.72c.02-.39,.46-.82,.72-1.38,.33-.71,.87-1.39,.76-1.81-.66,.15-1.63,1.94-2.09,2.59-1.57,2.24-3.45,4.01-5.38,5.88-4.34,4.19-4.72,4.8-10.32,7.52l-2.57,.95c-.32,.13-.28,.17-.63,.29-1.48,.54-3.49,.92-4.99,.95-.03,0-.07,0-.1,0l-1.3,.03c-1.05-.07-1.29,0-2.3,.12l-1.41,.03c-2.03,.06-6.71-.34-8.52-1.31l2.44,.1c2.07-.01,1.77-.42,2.27-.54,.37,.03,.55,.15,1.06,.17l2.76,.12c1.16,.13,2.96,.41,3.52-.64-.38-.75-.91-.41-2.49-.36-.57,.02-.73,.12-1.37,.1-.43-.02-.84-.02-1.32-.01-4.69,.06-4.68-.84-7.61-1.27-.46-.07-.38-.01-.73-.07l-3.7-1.06c-.55-.28-.35-.28-.68-.47-.47-.26-.67-.1-1.4-.56-.5-.31-.37-.33-.68-.55-.38-.25-.2-.11-.4-.17l-.17-.02s-.06,0-.07-.02c-.42-.17-.25-.69-.88-.95-.07,.08,0,.09,.02,.42-1.88-.97-1.4-.99-2.8-2.13-.7-.57-.51-.77-1.12-1.31-.51-.45-1.09-.63-1.61-1.06-.55-.46-2.39-2.22-2.66-2.31-.39-.13-.17,.24-.75-.32-.12-.12-.36-.48-.5-.67-.71-.93-.87-1.78-1.49-2.74-.57-.88-1.23-1.72-1.64-2.7-.2-.49-.3-.92-.5-1.38-.55-1.24-1.51-2.21-2.2-3.35l-.48-1.3c-.18-.35-.27-.3-.59-.37,.28-.51,.22-.26,.19-.71-.03-.47-.05-.14-.05-.39,0-.29-.15,.2,.05-.34-.03,0-.07,.02-.09,.02-.01,0-.07,.01-.08,.02-.68,.04,.18,.18-.2-.01-.18-.09-.15-.38-.27-.63l.44-.14c-.37-.47-.21-.04-.18-.54-.42,.04-.3,.16-.58,.06-.02-.35-.11-.37,.06-.48,.39-.25-.05-.04,.13,0l.5-.65-.56-.15c.36-.36,.45-.55,.23-1.17-.28-.78-.28-.47-.16-1.34-.49,.12-.33,.23-.89-.1-.04-.86,.29-.04-.28-1.28-.16-.35,.05-.34,.06-.35l.07-.7s-.03-.05-.04-.06c-.01-.02-.04-.05-.05-.07l-.17-.24c.29-.22,.24-.3,.57-.27-.42-.07-.29-.15-.79-.48,.03,.05,.18,.22,.19,.33l-.07,.25s-.03,.06-.06,.09l-.37-.49-.15-2.55c-.02-.52-.16-.66-.03-1.24,.23-1.07,.23-2.55,1.27-3.25,.81-.54,.44-.24,.68-1,.56-1.75,1.24-2.11,2.07-3.87,.5-1.05,.87-1.98,1.61-3.05,.53-.75,.4-.26,.7-1.09,.34-.94,.8-2.21,1.32-3.01,.1-.16,.24-.26,.28-.3,.73-.66-.39,.47,.19-.16,.19-.21,.18-.26,.35-.49,2.22-3.02,2.23-2.24,3.5-3.52,.07-.07,.06-.05,.17-.19,1.04-1.3,2.38-2.4,3.43-3.73,1.02-1.3,1.61-.02,2.41-.86,.59-.62,.15-.71,.83-1,.47-.21,.63-.4,1.08-.88,1.42-1.52,1.33-1.19,2.8-3.24,.48-.68,.08-.2,.45-.42,.19-.11,.37-.24,.53-.33,.27-.16,1.42-.47,.92,.15l-1.68,1.31c.11,.43,.4,.57,.22,.99-.39,.92-1.53,.23-.99,2.52,.66,0,.43-.03,1-.49l2.89-2.01c.43-.3,.6-.4,1.02-.74,.33-.26,.6-.35,.95-.55,.38-.21,.19-.12,.52-.36,.36-.26,.18-.13,.43-.26,.92-.48,1.83-1.43,2.87-1.7,1.19-.31,1.48-.81,2.65-1.06,.84-.18,1.69-.74,2.5-1.01,.24-.08-.05-.22,.43-.07,.76,.23,.29,.17,.37,.32-.48,.12-.74,.06-1.23,.21-.4,.12-.7,.54-1.02,.69-.12,.06-.92,.27-1.22,.37-2.07,.75-1.19,2.64,.23,2.02l2.27-.86,.42,.35c.43,.43,.29,.64,1.2,.32l.69-.34c.11-.04,.67,0,.85,.01v-.14c.08-.3-.04,.12,.05-.15,.06-.18-.15,.07,.14-.24,.94,.33,.67,.26,1.45-.11,.6-.28,.38-.03,.88-.14l1.36-.2,1.86-.98c.6-.29,.82,.06,1.5-.06l1.45-.25c.55-.07,.72-.28,1.45-.25,.6,.02,.86,.16,1.46,.19,.81,.04,2.15-.46,2.88-.22,1.43,.47,1.66-.02,2.82-.02,1.41,0,4.75,.2,6.01,.61-.97,.43-1.9-.43-2.78,.63,.75,.33,.79,.13,1.39,.28,.32,.08,.56,.35,1.15,.47,.83,.16,1.82-.19,2.48,.27-.5,.14-.91,.21-1.55,.12-.36-.05-.5-.1-.84-.13-.76-.07-.27-.22-.66,.14,.28,.46,1.84,.39,2.31,.29v.83c-.41,.03-1.4-.2-1.89-.24l-4.53,.08c-.83,.26-.42,.5-.4,.57,.27,.99,3.61,.43,4.39,.84-2.79,1.6-.58-.14-4.44,1.36l-6.16,.75c-.65,0-.98,.36-1.39,.9,.69,.23,.79,.03,1.42-.04,.69-.08,.67,.09,1.23-.08-.29,.27-.75,.38-1.11,.53l-.41,.17c.71,.07,1.4-.33,2.16-.27-.45,.34-1.39,.53-1.96,.79l-1.94,.65c.73,.58,.52,.28,1.12,.42,.64,.15,.45,.29,1.12,.43,.74,.15,3.38,.7,4.07,.1,.46-.4,.22-.46,.84-.64,.49-.14,.51,.05,.93-.25-.22-.68-.66-.59-.85-1.13,.42-.31-.02-.15,.64-.06,.23,.03,.4,.06,.64,.11,.46,.35-.26-.47,.05,.15l1.27,1.27c.78-.17,.11-.43,1.27,.02l4.32,2.03c1.94,.99,4.04,2.31,5.64,3.62,2.37,1.94,4.36,3.75,5.91,6.29,.69,1.13,.53,1.37,1,2.26,.41,.79,.78,1.46,1.05,2.34,.29,.93,.44,2.87,.19,3.89-.34,1.36-.88,3.15-1.54,4.36-1.25,2.25-.82,3.3-1.48,5.64-.13,.45-.04,.38-.17,.77-.09,.26-.19,.37-.29,.68-.19,.59-.03,.66-.31,1.35-.45,1.1-.6,1.76-.88,2.8-.51,1.95-1.83,3.88-2.75,5.77l-2.09,4.55c-.48,.97-.11,.19-.54,.55-.27,.22-.24,.23-.48,.56-4.85,6.82-3.08,4.01-7.96,9.07-2.64,2.74-5.85,4.77-8.89,6.01-1.55,.63-3.19,1.33-4.83,1.59-.45,.07-.82,.17-1.24,.26-.85,.19-2.97,.59-3.72,.32h0Z"/></svg>